<svg width="35" height="33" viewBox="0 0 35 33" fill="none" xmlns="http://www.w3.org/2000/svg">
<path d="M15.7335 1.11911C14.2347 1.33484 12.4326 4.26508 11.7189 5.70324C-0.592352 5.70324 4.76017 14.8714 5.56322 16.4893C5.02794 17.0286 3.15447 20.8038 3.95738 24.0397C4.59972 26.6283 8.32882 26.916 10.1131 26.7362C10.4699 26.8261 11.2907 27.0598 11.7189 27.2755C12.2542 28.8934 13.86 31.0507 17.3393 32.1293C20.1228 32.9922 22.6029 29.0732 23.495 27.0059L27.7773 26.7362C28.5802 26.2868 30.2395 25.3879 30.4537 25.3879C30.6678 25.3879 31.2566 23.77 31.5242 22.961V19.7252L29.6507 16.4893L30.9889 14.0624L31.7919 10.8266L30.9889 8.3997L29.6507 7.05142C29.4366 6.8357 27.5988 6.42223 26.7067 6.24246H23.7627L21.6216 2.73695L18.9452 1.11911C18.4991 1.02923 17.2323 0.903389 15.7335 1.11911Z" fill="#D1D4FF"/>
<path d="M24.9966 11.8965C24.5727 11.2548 20.0513 8.95529 17.8437 7.88574L12.5452 10.5596C11.9271 10.7379 10.5318 11.3618 9.89599 12.4313C9.26017 13.5009 9.63107 18.5812 9.89599 20.9877C11.3972 22.1463 14.8765 24.6241 16.784 25.2659C19.1683 26.068 24.7316 21.7898 25.2615 20.7203C25.5264 18.8486 25.5264 12.6987 24.9966 11.8965Z" fill="#4F56D3"/>
<ellipse cx="17.4902" cy="16.6257" rx="15.6257" ry="7.94529" transform="rotate(-90 17.4902 16.6257)" stroke="black"/>
<ellipse cx="15.6257" cy="7.94529" rx="15.6257" ry="7.94529" transform="matrix(0.866025 -0.5 0.497483 0.867474 0.010498 17.4204)" stroke="black"/>
<ellipse cx="15.6257" cy="7.94529" rx="15.6257" ry="7.94529" transform="matrix(-0.866025 -0.5 -0.497483 0.867474 34.97 17.4204)" stroke="black"/>
<circle cx="30.7324" cy="8.9455" r="1.58906" fill="#CDFF65" stroke="black"/>
<circle cx="4.24799" cy="8.9455" r="1.58906" fill="#CDFF65" stroke="black"/>
<circle cx="4.24799" cy="24.8356" r="1.58906" fill="#CDFF65" stroke="black"/>
<circle cx="30.7324" cy="24.8356" r="1.58906" fill="#CDFF65" stroke="black"/>
<path d="M16.0133 13.7124H16.7849L19.0157 19.5389H18.2106L17.6319 17.9995H15.1495L14.5876 19.5389H13.7825L16.0133 13.7124ZM16.3907 14.6476L15.4011 17.3209H17.3803L16.3907 14.6476Z" fill="#D1D4FF"/>
<path d="M20.6684 13.7124V19.5389H19.922V13.7124H20.6684Z" fill="#D1D4FF"/>
</svg>
