<svg width="24" height="18" viewBox="0 0 24 18" fill="none" xmlns="http://www.w3.org/2000/svg">
<path fill-rule="evenodd" clip-rule="evenodd" d="M23.907 8.79893C24.0554 10.1924 23.0455 11.2024 21.6481 11.0578L7.98118 11.2332L10.4868 13.7388C11.2577 14.5097 11.3136 15.9957 10.4328 16.8765C9.55006 17.7593 8.06598 17.7014 7.29504 16.9305L0.934727 10.5702C0.549253 10.1847 0.138723 9.43882 0.244729 8.94734C0.159923 8.26119 0.371934 7.66371 0.795955 7.23969L7.25071 0.784937C8.13151 -0.0958701 9.61751 -0.0399767 10.5812 0.923707C11.3521 1.69465 11.408 3.18065 10.5253 4.06339L7.94456 6.64413L21.7792 6.68653C22.9838 6.63835 23.9494 7.60011 23.907 8.79893Z" fill="#D1D4FF"/>
</svg>
