<svg width="304" height="219" viewBox="0 0 304 219" fill="none" xmlns="http://www.w3.org/2000/svg">
<path d="M193.091 168.191H103.55L115.556 166.094C120.126 165.304 123.473 161.318 123.473 156.667V125.487H173.167V156.667C173.167 161.318 176.515 165.304 181.084 166.094L193.091 168.191Z" fill="white"/>
<mask id="mask0_351_1728" style="mask-type:luminance" maskUnits="userSpaceOnUse" x="103" y="125" width="91" height="44">
<path d="M193.091 168.191H103.55L115.556 166.094C120.126 165.304 123.473 161.318 123.473 156.667V125.487H173.167V156.667C173.167 161.318 176.515 165.304 181.084 166.094L193.091 168.191Z" fill="white"/>
</mask>
<g mask="url(#mask0_351_1728)">
<path opacity="0.3" d="M173.167 125.487V151.936L123.473 154.571V125.487H173.167Z" fill="black"/>
</g>
<path d="M193.091 168.191H103.55L115.556 166.094C120.126 165.304 123.473 161.318 123.473 156.667V125.487H173.167V156.667C173.167 161.318 176.515 165.304 181.084 166.094L193.091 168.191Z" stroke="#263238" stroke-linecap="round" stroke-linejoin="round"/>
<path d="M262.583 0H34.0579C31.8749 0 30.1052 1.77445 30.1052 3.96335V140.493C30.1052 142.681 31.8749 144.456 34.0579 144.456H262.583C264.766 144.456 266.536 142.681 266.536 140.493V3.96335C266.536 1.77445 264.766 0 262.583 0Z" fill="#263238"/>
<path d="M263.908 6.33447H32.7214V134.8H263.908V6.33447Z" fill="white" stroke="#263238" stroke-linecap="round" stroke-linejoin="round"/>
<path d="M153.415 140.377H143.214C142.563 140.377 142.037 139.85 142.037 139.197C142.037 138.544 142.563 138.018 143.214 138.018H153.415C154.067 138.018 154.592 138.544 154.592 139.197C154.592 139.85 154.067 140.377 153.415 140.377Z" fill="white"/>
<path d="M150 3.01269C150 3.94052 149.246 4.70799 148.309 4.70799C147.372 4.70799 146.618 3.95198 146.618 3.01269C146.618 2.0734 147.372 1.31738 148.309 1.31738C149.246 1.31738 150 2.0734 150 3.01269Z" fill="white"/>
<path opacity="0.5" d="M262.092 7.29639H34.5376V11.7179H262.092V7.29639Z" fill="#D1D4FF"/>
<path d="M34.5376 11.7178H262.092" stroke="#263238" stroke-linecap="round" stroke-linejoin="round"/>
<path d="M37.6677 9.40332H44.2593" stroke="#263238" stroke-linecap="round" stroke-linejoin="round"/>
<path d="M51.4792 9.40332H57.4197" stroke="#263238" stroke-linecap="round" stroke-linejoin="round"/>
<path d="M65.1196 9.40332H70.9002" stroke="#263238" stroke-linecap="round" stroke-linejoin="round"/>
<path d="M227.82 111.706H148.789C147.669 111.706 146.755 110.789 146.755 109.667C146.755 108.544 147.669 107.628 148.789 107.628H227.82C228.939 107.628 229.853 108.544 229.853 109.667C229.853 110.789 228.939 111.706 227.82 111.706Z" stroke="#263238" stroke-linecap="round" stroke-linejoin="round"/>
<path d="M204.972 111.706H148.789C147.669 111.706 146.755 110.789 146.755 109.667C146.755 108.544 147.669 107.628 148.789 107.628H204.972C206.091 107.628 207.005 108.544 207.005 109.667C207.005 110.789 206.091 111.706 204.972 111.706Z" fill="#CDFF65" stroke="#263238" stroke-linecap="round" stroke-linejoin="round"/>
<path d="M191.046 90.824C176.903 92.233 163.674 82.7599 160.67 68.4987C157.665 54.2261 165.948 40.2055 179.462 35.7725" stroke="#4F56D3" stroke-linecap="round" stroke-linejoin="round"/>
<path d="M185.551 34.4901C199.694 33.0811 212.923 42.5542 215.927 56.8154C218.932 71.088 210.649 85.1086 197.135 89.5416" stroke="#4F56D3" stroke-linecap="round" stroke-linejoin="round"/>
<path d="M188.304 37.6395L185.026 34.352L188.304 31.0645" stroke="#4F56D3" stroke-linecap="round" stroke-linejoin="round"/>
<path d="M188.304 87.6738L191.571 90.9613L188.304 94.2489" stroke="#4F56D3" stroke-linecap="round" stroke-linejoin="round"/>
<path d="M110.301 54.0088H34.5376" stroke="#263238" stroke-linecap="round" stroke-linejoin="round"/>
<path d="M114.871 11.7178H111.821V131.913H114.871V11.7178Z" fill="#263238"/>
<path d="M51.8221 20.435C51.5365 20.435 51.2851 20.2518 51.1937 19.9883L50.8624 19.0376C50.7711 18.7741 50.5197 18.5908 50.2341 18.5908H46.4985C46.2129 18.5908 45.9616 18.7741 45.8702 19.0376L45.5389 19.9883C45.4475 20.2518 45.1962 20.435 44.9106 20.435H40.2267C39.8612 20.435 39.5527 20.7329 39.5527 21.1109V28.6252C39.5527 28.9917 39.8498 29.301 40.2267 29.301H51.8449C52.2105 29.301 52.5189 29.0032 52.5189 28.6252V21.1109C52.5189 20.7443 52.2219 20.435 51.8449 20.435H51.8221Z" fill="#CDFF65" stroke="#263238" stroke-linecap="round" stroke-linejoin="round"/>
<path d="M69.7806 20.435C69.495 20.435 69.2436 20.2518 69.1523 19.9883L68.821 19.0376C68.7296 18.7741 68.4782 18.5908 68.1926 18.5908H64.457C64.1714 18.5908 63.9201 18.7741 63.8287 19.0376L63.4974 19.9883C63.406 20.2518 63.1547 20.435 62.8691 20.435H58.1852C57.8197 20.435 57.5112 20.7329 57.5112 21.1109V28.6252C57.5112 28.9917 57.8083 29.301 58.1852 29.301H69.8034C70.169 29.301 70.4774 29.0032 70.4774 28.6252V21.1109C70.4774 20.7443 70.1804 20.435 69.8034 20.435H69.7806Z" fill="#CDFF65" stroke="#263238" stroke-linecap="round" stroke-linejoin="round"/>
<path d="M87.7391 20.435C87.4535 20.435 87.2021 20.2518 87.1107 19.9883L86.7795 19.0376C86.6881 18.7741 86.4367 18.5908 86.1511 18.5908H82.4155C82.1299 18.5908 81.8786 18.7741 81.7872 19.0376L81.4559 19.9883C81.3645 20.2518 81.1132 20.435 80.8276 20.435H76.1437C75.7782 20.435 75.4697 20.7329 75.4697 21.1109V28.6252C75.4697 28.9917 75.7668 29.301 76.1437 29.301H87.7619C88.1275 29.301 88.4359 29.0032 88.4359 28.6252V21.1109C88.4359 20.7443 88.1389 20.435 87.7619 20.435H87.7391Z" fill="#CDFF65" stroke="#263238" stroke-linecap="round" stroke-linejoin="round"/>
<path d="M105.698 20.435C105.412 20.435 105.161 20.2518 105.069 19.9883L104.738 19.0376C104.647 18.7741 104.395 18.5908 104.11 18.5908H100.374C100.088 18.5908 99.8371 18.7741 99.7457 19.0376L99.4144 19.9883C99.323 20.2518 99.0717 20.435 98.7861 20.435H94.1022C93.7367 20.435 93.4282 20.7329 93.4282 21.1109V28.6252C93.4282 28.9917 93.7253 29.301 94.1022 29.301H105.72C106.086 29.301 106.394 29.0032 106.394 28.6252V21.1109C106.394 20.7443 106.097 20.435 105.72 20.435H105.698Z" fill="#CDFF65" stroke="#263238" stroke-linecap="round" stroke-linejoin="round"/>
<path d="M51.8221 36.4721C51.5365 36.4721 51.2851 36.2889 51.1937 36.0254L50.8624 35.0747C50.7711 34.8112 50.5197 34.6279 50.2341 34.6279H46.4985C46.2129 34.6279 45.9616 34.8112 45.8702 35.0747L45.5389 36.0254C45.4475 36.2889 45.1962 36.4721 44.9106 36.4721H40.2267C39.8612 36.4721 39.5527 36.77 39.5527 37.148V44.6623C39.5527 45.0289 39.8498 45.3381 40.2267 45.3381H51.8449C52.2105 45.3381 52.5189 45.0403 52.5189 44.6623V37.148C52.5189 36.7814 52.2219 36.4721 51.8449 36.4721H51.8221Z" fill="#CDFF65" stroke="#263238" stroke-linecap="round" stroke-linejoin="round"/>
<path d="M69.7806 36.4721C69.495 36.4721 69.2436 36.2889 69.1523 36.0254L68.821 35.0747C68.7296 34.8112 68.4782 34.6279 68.1926 34.6279H64.457C64.1714 34.6279 63.9201 34.8112 63.8287 35.0747L63.4974 36.0254C63.406 36.2889 63.1547 36.4721 62.8691 36.4721H58.1852C57.8197 36.4721 57.5112 36.77 57.5112 37.148V44.6623C57.5112 45.0289 57.8083 45.3381 58.1852 45.3381H69.8034C70.169 45.3381 70.4774 45.0403 70.4774 44.6623V37.148C70.4774 36.7814 70.1804 36.4721 69.8034 36.4721H69.7806Z" fill="#CDFF65" stroke="#263238" stroke-linecap="round" stroke-linejoin="round"/>
<path d="M87.7391 36.4721C87.4535 36.4721 87.2021 36.2889 87.1107 36.0254L86.7795 35.0747C86.6881 34.8112 86.4367 34.6279 86.1511 34.6279H82.4155C82.1299 34.6279 81.8786 34.8112 81.7872 35.0747L81.4559 36.0254C81.3645 36.2889 81.1132 36.4721 80.8276 36.4721H76.1437C75.7782 36.4721 75.4697 36.77 75.4697 37.148V44.6623C75.4697 45.0289 75.7668 45.3381 76.1437 45.3381H87.7619C88.1275 45.3381 88.4359 45.0403 88.4359 44.6623V37.148C88.4359 36.7814 88.1389 36.4721 87.7619 36.4721H87.7391Z" fill="#CDFF65" stroke="#263238" stroke-linecap="round" stroke-linejoin="round"/>
<path d="M105.698 36.4721C105.412 36.4721 105.161 36.2889 105.069 36.0254L104.738 35.0747C104.647 34.8112 104.395 34.6279 104.11 34.6279H100.374C100.088 34.6279 99.8371 34.8112 99.7457 35.0747L99.4144 36.0254C99.323 36.2889 99.0717 36.4721 98.7861 36.4721H94.1022C93.7367 36.4721 93.4282 36.77 93.4282 37.148V44.6623C93.4282 45.0289 93.7253 45.3381 94.1022 45.3381H105.72C106.086 45.3381 106.394 45.0403 106.394 44.6623V37.148C106.394 36.7814 106.097 36.4721 105.72 36.4721H105.698Z" fill="#CDFF65" stroke="#263238" stroke-linecap="round" stroke-linejoin="round"/>
<path d="M113.34 21.9011C112.495 21.9011 111.821 21.2139 111.821 20.3777V14.9825C111.821 14.1348 112.506 13.459 113.34 13.459C114.186 13.459 114.86 14.1463 114.86 14.9825V20.3777C114.86 21.2253 114.174 21.9011 113.34 21.9011Z" fill="#CDFF65" stroke="#263238" stroke-linecap="round" stroke-linejoin="round"/>
<path d="M113.34 63.1384C112.495 63.1384 111.821 62.4512 111.821 61.615V56.2198C111.821 55.3721 112.506 54.6963 113.34 54.6963C114.186 54.6963 114.86 55.3836 114.86 56.2198V61.615C114.86 62.4626 114.174 63.1384 113.34 63.1384Z" fill="#CDFF65" stroke="#263238" stroke-linecap="round" stroke-linejoin="round"/>
<path d="M39.5413 63.3672H62.2178" stroke="#263238" stroke-linecap="round" stroke-linejoin="round"/>
<path d="M49.3315 68.0752H76.6005" stroke="#263238" stroke-linecap="round" stroke-linejoin="round"/>
<path d="M49.3315 72.7832H72.031" stroke="#263238" stroke-linecap="round" stroke-linejoin="round"/>
<path d="M49.3315 77.4795H73.1733" stroke="#263238" stroke-linecap="round" stroke-linejoin="round"/>
<path d="M39.5413 82.1875H56.5058" stroke="#263238" stroke-linecap="round" stroke-linejoin="round"/>
<path d="M49.3315 86.8945H78.8853" stroke="#263238" stroke-linecap="round" stroke-linejoin="round"/>
<path d="M49.3315 91.6035H82.3125" stroke="#263238" stroke-linecap="round" stroke-linejoin="round"/>
<path d="M49.3315 96.3115H75.4581" stroke="#263238" stroke-linecap="round" stroke-linejoin="round"/>
<path d="M60.7556 101.019H86.8822" stroke="#263238" stroke-linecap="round" stroke-linejoin="round"/>
<path d="M60.7556 105.715H82.3126" stroke="#263238" stroke-linecap="round" stroke-linejoin="round"/>
<path d="M39.5413 110.424H56.5058" stroke="#263238" stroke-linecap="round" stroke-linejoin="round"/>
<path d="M49.3315 115.132H77.7429" stroke="#263238" stroke-linecap="round" stroke-linejoin="round"/>
<path d="M49.3315 119.839H73.1733" stroke="#263238" stroke-linecap="round" stroke-linejoin="round"/>
<path d="M49.3315 124.547H75.4581" stroke="#263238" stroke-linecap="round" stroke-linejoin="round"/>
<path d="M193.079 168.213H103.55V171.558H193.079V168.213Z" fill="#D1D4FF" stroke="#263238" stroke-linecap="round" stroke-linejoin="round"/>
<path d="M264.925 197.48H31.7046L48.0751 181.065C49.9829 179.152 52.5648 178.075 55.2608 178.075H241.369C244.065 178.075 246.646 179.152 248.554 181.065L264.925 197.48Z" fill="#D1D4FF" stroke="#263238" stroke-linecap="round" stroke-linejoin="round"/>
<path d="M264.925 197.479H31.7046V199.152H264.925V197.479Z" fill="#263238" stroke="#263238" stroke-linecap="round" stroke-linejoin="round"/>
<path d="M46.8757 186.346H54.9182L57.3401 183.769H49.5032L46.8757 186.346Z" stroke="#263238" stroke-width="0.75" stroke-linecap="round" stroke-linejoin="round"/>
<path d="M57.6943 186.346H65.7482L67.8845 183.769H60.0477L57.6943 186.346Z" stroke="#263238" stroke-width="0.75" stroke-linecap="round" stroke-linejoin="round"/>
<path d="M68.5242 186.346H76.5666L78.4288 183.769H70.5919L68.5242 186.346Z" stroke="#263238" stroke-width="0.75" stroke-linecap="round" stroke-linejoin="round"/>
<path d="M79.3425 186.346H87.3964L88.9729 183.769H81.1361L79.3425 186.346Z" stroke="#263238" stroke-width="0.75" stroke-linecap="round" stroke-linejoin="round"/>
<path d="M90.1726 186.346H98.2151L99.5174 183.769H91.6806L90.1726 186.346Z" stroke="#263238" stroke-width="0.75" stroke-linecap="round" stroke-linejoin="round"/>
<path d="M100.991 186.346H109.045L110.062 183.769H102.225L100.991 186.346Z" stroke="#263238" stroke-width="0.75" stroke-linecap="round" stroke-linejoin="round"/>
<path d="M111.821 186.346H119.864L120.606 183.769H112.769L111.821 186.346Z" stroke="#263238" stroke-width="0.75" stroke-linecap="round" stroke-linejoin="round"/>
<path d="M122.639 186.346H130.693L131.15 183.769H123.313L122.639 186.346Z" stroke="#263238" stroke-width="0.75" stroke-linecap="round" stroke-linejoin="round"/>
<path d="M133.469 186.346H141.512L141.695 183.769H133.858L133.469 186.346Z" stroke="#263238" stroke-width="0.75" stroke-linecap="round" stroke-linejoin="round"/>
<path d="M144.288 186.346H152.342L152.239 183.769H144.391L144.288 186.346Z" stroke="#263238" stroke-width="0.75" stroke-linecap="round" stroke-linejoin="round"/>
<path d="M155.118 186.346H163.172L162.783 183.769H154.935L155.118 186.346Z" stroke="#263238" stroke-width="0.75" stroke-linecap="round" stroke-linejoin="round"/>
<path d="M165.936 186.346H173.99L173.328 183.769H165.479L165.936 186.346Z" stroke="#263238" stroke-width="0.75" stroke-linecap="round" stroke-linejoin="round"/>
<path d="M176.766 186.346H184.82L183.872 183.769H176.024L176.766 186.346Z" stroke="#263238" stroke-width="0.75" stroke-linecap="round" stroke-linejoin="round"/>
<path d="M198.415 186.346H206.469L204.961 183.769H197.112L198.415 186.346Z" stroke="#263238" stroke-width="0.75" stroke-linecap="round" stroke-linejoin="round"/>
<path d="M209.244 186.346H217.287L215.505 183.769H207.656L209.244 186.346Z" stroke="#263238" stroke-width="0.75" stroke-linecap="round" stroke-linejoin="round"/>
<path d="M228.745 183.769L230.893 186.346H238.935L236.593 183.769H228.745Z" stroke="#263238" stroke-width="0.75" stroke-linecap="round" stroke-linejoin="round"/>
<path d="M239.29 183.769L241.711 186.346H249.765L247.138 183.769H239.29Z" stroke="#263238" stroke-width="0.75" stroke-linecap="round" stroke-linejoin="round"/>
<path d="M218.201 183.769L220.063 186.346H228.117L226.049 183.769H218.201Z" stroke="#263238" stroke-width="0.75" stroke-linecap="round" stroke-linejoin="round"/>
<path d="M186.568 183.769L187.585 186.346H195.638L194.416 183.769H186.568Z" stroke="#263238" stroke-width="0.75" stroke-linecap="round" stroke-linejoin="round"/>
<path d="M42.5803 190.562H50.9655L53.593 187.767H45.4249L42.5803 190.562Z" stroke="#263238" stroke-width="0.75" stroke-linecap="round" stroke-linejoin="round"/>
<path d="M53.8557 190.562H62.2523L64.5714 187.767H56.4033L53.8557 190.562Z" stroke="#263238" stroke-width="0.75" stroke-linecap="round" stroke-linejoin="round"/>
<path d="M65.1426 190.562H73.5278L75.5498 187.767H67.3817L65.1426 190.562Z" stroke="#263238" stroke-width="0.75" stroke-linecap="round" stroke-linejoin="round"/>
<path d="M76.4294 190.562H84.8146L86.5282 187.767H78.3601L76.4294 190.562Z" stroke="#263238" stroke-width="0.75" stroke-linecap="round" stroke-linejoin="round"/>
<path d="M87.7051 190.562H96.1017L97.5068 187.767H89.3387L87.7051 190.562Z" stroke="#263238" stroke-width="0.75" stroke-linecap="round" stroke-linejoin="round"/>
<path d="M98.9919 190.562H107.377L108.485 187.767H100.317L98.9919 190.562Z" stroke="#263238" stroke-width="0.75" stroke-linecap="round" stroke-linejoin="round"/>
<path d="M110.267 190.562H118.664L119.464 187.767H111.296L110.267 190.562Z" stroke="#263238" stroke-width="0.75" stroke-linecap="round" stroke-linejoin="round"/>
<path d="M121.554 190.562H129.951L130.442 187.767H122.274L121.554 190.562Z" stroke="#263238" stroke-width="0.75" stroke-linecap="round" stroke-linejoin="round"/>
<path d="M132.841 190.562H141.226L141.42 187.767H133.252L132.841 190.562Z" stroke="#263238" stroke-width="0.75" stroke-linecap="round" stroke-linejoin="round"/>
<path d="M144.116 190.562H152.513L152.399 187.767H144.231L144.116 190.562Z" stroke="#263238" stroke-width="0.75" stroke-linecap="round" stroke-linejoin="round"/>
<path d="M155.403 190.562H163.8L163.377 187.767H155.209L155.403 190.562Z" stroke="#263238" stroke-width="0.75" stroke-linecap="round" stroke-linejoin="round"/>
<path d="M166.69 190.562H175.075L174.356 187.767H166.188L166.69 190.562Z" stroke="#263238" stroke-width="0.75" stroke-linecap="round" stroke-linejoin="round"/>
<path d="M177.966 190.562H186.362L185.334 187.767H177.166L177.966 190.562Z" stroke="#263238" stroke-width="0.75" stroke-linecap="round" stroke-linejoin="round"/>
<path d="M200.539 190.562H208.925L207.291 187.767H199.123L200.539 190.562Z" stroke="#263238" stroke-width="0.75" stroke-linecap="round" stroke-linejoin="round"/>
<path d="M211.815 190.562H220.212L218.269 187.767H210.101L211.815 190.562Z" stroke="#263238" stroke-width="0.75" stroke-linecap="round" stroke-linejoin="round"/>
<path d="M234.389 190.562H242.774L240.226 187.767H232.058L234.389 190.562Z" stroke="#263238" stroke-width="0.75" stroke-linecap="round" stroke-linejoin="round"/>
<path d="M245.664 190.562H254.061L251.205 187.767H243.037L245.664 190.562Z" stroke="#263238" stroke-width="0.75" stroke-linecap="round" stroke-linejoin="round"/>
<path d="M223.102 190.562H231.498L229.248 187.767H221.08L223.102 190.562Z" stroke="#263238" stroke-width="0.75" stroke-linecap="round" stroke-linejoin="round"/>
<path d="M189.253 190.562H197.649L196.313 187.767H188.145L189.253 190.562Z" stroke="#263238" stroke-width="0.75" stroke-linecap="round" stroke-linejoin="round"/>
<path d="M37.8965 195.144H46.6587L49.5261 192.097H41.0038L37.8965 195.144Z" stroke="#263238" stroke-width="0.75" stroke-linecap="round" stroke-linejoin="round"/>
<path d="M49.686 195.144H58.4368L60.9729 192.097H52.4621L49.686 195.144Z" stroke="#263238" stroke-width="0.75" stroke-linecap="round" stroke-linejoin="round"/>
<path d="M61.4641 195.144H70.2263L72.4197 192.097H63.9088L61.4641 195.144Z" stroke="#263238" stroke-width="0.75" stroke-linecap="round" stroke-linejoin="round"/>
<path d="M73.2422 195.144H82.0044L83.8779 192.097H75.3556L73.2422 195.144Z" stroke="#263238" stroke-width="0.75" stroke-linecap="round" stroke-linejoin="round"/>
<path d="M155.723 195.144H164.474L164.028 192.097H155.506H95.3247H86.8024L85.0317 195.144H93.7825H155.723Z" stroke="#263238" stroke-width="0.75" stroke-linecap="round" stroke-linejoin="round"/>
<path d="M167.501 195.144H176.263L175.475 192.097H166.964L167.501 195.144Z" stroke="#263238" stroke-width="0.75" stroke-linecap="round" stroke-linejoin="round"/>
<path d="M179.279 195.144H188.042L186.922 192.097H178.411L179.279 195.144Z" stroke="#263238" stroke-width="0.75" stroke-linecap="round" stroke-linejoin="round"/>
<path d="M202.847 195.144H211.609L209.827 192.097H201.316L202.847 195.144Z" stroke="#263238" stroke-width="0.75" stroke-linecap="round" stroke-linejoin="round"/>
<path d="M238.193 195.144H246.955L244.179 192.097H235.657L238.193 195.144Z" stroke="#263238" stroke-width="0.75" stroke-linecap="round" stroke-linejoin="round"/>
<path d="M249.971 195.144H258.733L255.626 192.097H247.115L249.971 195.144Z" stroke="#263238" stroke-width="0.75" stroke-linecap="round" stroke-linejoin="round"/>
<path d="M221.274 192.097H212.763L214.625 195.144H223.387H226.415H235.166L232.721 192.097H224.21H221.274Z" stroke="#263238" stroke-width="0.75" stroke-linecap="round" stroke-linejoin="round"/>
<path d="M191.069 195.144H199.82L198.38 192.097H189.858L191.069 195.144Z" stroke="#263238" stroke-width="0.75" stroke-linecap="round" stroke-linejoin="round"/>
<path d="M50.8284 182.463H58.5624L60.8015 180.08H53.2617L50.8284 182.463Z" stroke="#263238" stroke-width="0.75" stroke-linecap="round" stroke-linejoin="round"/>
<path d="M61.2356 182.463H68.9696L70.946 180.08H63.4062L61.2356 182.463Z" stroke="#263238" stroke-width="0.75" stroke-linecap="round" stroke-linejoin="round"/>
<path d="M71.6313 182.463H79.3768L81.0904 180.08H73.5506L71.6313 182.463Z" stroke="#263238" stroke-width="0.75" stroke-linecap="round" stroke-linejoin="round"/>
<path d="M82.0386 182.463H89.7726L91.2349 180.08H83.6951L82.0386 182.463Z" stroke="#263238" stroke-width="0.75" stroke-linecap="round" stroke-linejoin="round"/>
<path d="M92.4343 182.463H100.18L101.379 180.08H93.8281L92.4343 182.463Z" stroke="#263238" stroke-width="0.75" stroke-linecap="round" stroke-linejoin="round"/>
<path d="M102.842 182.463H110.576L111.512 180.08H103.973L102.842 182.463Z" stroke="#263238" stroke-width="0.75" stroke-linecap="round" stroke-linejoin="round"/>
<path d="M113.249 182.463H120.983L121.657 180.08H114.117L113.249 182.463Z" stroke="#263238" stroke-width="0.75" stroke-linecap="round" stroke-linejoin="round"/>
<path d="M123.645 182.463H131.379L131.801 180.08H124.262L123.645 182.463Z" stroke="#263238" stroke-width="0.75" stroke-linecap="round" stroke-linejoin="round"/>
<path d="M134.052 182.463H141.786L141.946 180.08H134.406L134.052 182.463Z" stroke="#263238" stroke-width="0.75" stroke-linecap="round" stroke-linejoin="round"/>
<path d="M144.448 182.463H152.182L152.09 180.08H144.551L144.448 182.463Z" stroke="#263238" stroke-width="0.75" stroke-linecap="round" stroke-linejoin="round"/>
<path d="M154.855 182.463H162.589L162.235 180.08H154.684L154.855 182.463Z" stroke="#263238" stroke-width="0.75" stroke-linecap="round" stroke-linejoin="round"/>
<path d="M165.251 182.463H172.985L172.368 180.08H164.828L165.251 182.463Z" stroke="#263238" stroke-width="0.75" stroke-linecap="round" stroke-linejoin="round"/>
<path d="M175.658 182.463H183.392L182.512 180.08H174.973L175.658 182.463Z" stroke="#263238" stroke-width="0.75" stroke-linecap="round" stroke-linejoin="round"/>
<path d="M196.461 182.463H204.195L202.801 180.08H195.261L196.461 182.463Z" stroke="#263238" stroke-width="0.75" stroke-linecap="round" stroke-linejoin="round"/>
<path d="M206.857 182.463H214.591L212.946 180.08H205.406L206.857 182.463Z" stroke="#263238" stroke-width="0.75" stroke-linecap="round" stroke-linejoin="round"/>
<path d="M225.684 180.08L227.66 182.463H235.394L233.223 180.08H225.684Z" stroke="#263238" stroke-width="0.75" stroke-linecap="round" stroke-linejoin="round"/>
<path d="M235.828 180.08L238.067 182.463H245.801L243.368 180.08H235.828Z" stroke="#263238" stroke-width="0.75" stroke-linecap="round" stroke-linejoin="round"/>
<path d="M215.539 180.08L217.264 182.463H224.998L223.09 180.08H215.539Z" stroke="#263238" stroke-width="0.75" stroke-linecap="round" stroke-linejoin="round"/>
<path d="M185.117 180.08L186.054 182.463H193.788L192.657 180.08H185.117Z" stroke="#263238" stroke-width="0.75" stroke-linecap="round" stroke-linejoin="round"/>
<path d="M167.2 59.2728H172.074V65.3386H170.806V60.4446H168.468V65.3386H167.2V59.2728Z" fill="#4F56D3"/>
<path d="M173.809 60.0396C174.328 59.4595 175.003 59.1694 175.832 59.1694C176.66 59.1694 177.332 59.4595 177.846 60.0396C178.365 60.6141 178.625 61.3694 178.625 62.3057C178.625 63.242 178.365 64.0002 177.846 64.5804C177.332 65.1548 176.66 65.442 175.832 65.442C175.003 65.442 174.328 65.1548 173.809 64.5804C173.295 64.0002 173.038 63.242 173.038 62.3057C173.038 61.3694 173.295 60.6141 173.809 60.0396ZM174.729 63.7188C175 64.0807 175.367 64.2616 175.832 64.2616C176.296 64.2616 176.66 64.0807 176.926 63.7188C177.196 63.3511 177.332 62.8801 177.332 62.3057C177.332 61.7313 177.196 61.2632 176.926 60.9013C176.66 60.5336 176.296 60.3498 175.832 60.3498C175.367 60.3498 175 60.5336 174.729 60.9013C174.464 61.2632 174.331 61.7313 174.331 62.3057C174.331 62.8801 174.464 63.3511 174.729 63.7188Z" fill="#4F56D3"/>
<path d="M185.049 64.1668V66.4932H183.831V65.3386H180.176V66.4932H178.965V64.1668H179.421C179.604 64.0462 179.736 63.8365 179.819 63.5378C179.908 63.2334 179.968 62.8169 180.001 62.2885L180.192 59.2728H184.337V64.1668H185.049ZM181.203 62.2885C181.17 62.8169 181.123 63.2162 181.062 63.4861C181.002 63.7504 180.899 63.9773 180.756 64.1668H183.068V60.4446H181.328L181.203 62.2885Z" fill="#4F56D3"/>
<path d="M189.58 63.2449H190.84C190.824 63.5091 190.76 63.7676 190.65 64.0203C190.539 64.2731 190.384 64.5086 190.186 64.7269C189.987 64.9394 189.724 65.1117 189.398 65.2438C189.072 65.376 188.707 65.442 188.304 65.442C187.514 65.442 186.862 65.1606 186.348 64.5976C185.834 64.029 185.577 63.265 185.577 62.3057C185.577 61.3694 185.831 60.6141 186.339 60.0396C186.848 59.4595 187.503 59.1694 188.304 59.1694C189.039 59.1694 189.625 59.3762 190.061 59.7898C190.498 60.2034 190.755 60.7261 190.832 61.3579H189.572C189.5 61.065 189.357 60.8237 189.141 60.6342C188.926 60.4446 188.647 60.3498 188.304 60.3498C187.878 60.3498 187.533 60.5279 187.268 60.884C187.003 61.2402 186.87 61.7141 186.87 62.3057C186.87 62.8916 187.003 63.3655 187.268 63.7274C187.533 64.0835 187.881 64.2616 188.312 64.2616C188.671 64.2616 188.961 64.1582 189.183 63.9514C189.404 63.7389 189.536 63.5034 189.58 63.2449Z" fill="#4F56D3"/>
<path d="M194.984 59.2728H196.253V65.3386H194.984V62.9519C194.664 63.1357 194.263 63.2276 193.782 63.2276C193.13 63.2276 192.6 63.0295 192.191 62.6331C191.788 62.231 191.586 61.6336 191.586 60.841V59.2728H192.854V60.8065C192.854 61.2143 192.959 61.5245 193.169 61.737C193.385 61.9496 193.669 62.0558 194.023 62.0558C194.393 62.0558 194.714 61.9697 194.984 61.7974V59.2728Z" fill="#4F56D3"/>
<path d="M201.387 60.4446H198.742V61.6853H201.229V62.8141H198.742V64.1668H201.387V65.3386H197.474V59.2728H201.387V60.4446ZM198.046 57.5409C198.173 57.4088 198.328 57.3428 198.51 57.3428C198.693 57.3428 198.845 57.4088 198.966 57.5409C199.093 57.6731 199.157 57.831 199.157 58.0148C199.157 58.1987 199.093 58.3566 198.966 58.4887C198.845 58.6151 198.693 58.6783 198.51 58.6783C198.328 58.6783 198.173 58.6151 198.046 58.4887C197.925 58.3566 197.864 58.1987 197.864 58.0148C197.864 57.831 197.925 57.6731 198.046 57.5409ZM200.408 57.3428C200.585 57.3428 200.737 57.4088 200.864 57.5409C200.991 57.6731 201.055 57.831 201.055 58.0148C201.055 58.1987 200.991 58.3566 200.864 58.4887C200.737 58.6151 200.585 58.6783 200.408 58.6783C200.226 58.6783 200.071 58.6151 199.944 58.4887C199.823 58.3566 199.762 58.1987 199.762 58.0148C199.762 57.831 199.823 57.6731 199.944 57.5409C200.071 57.4088 200.226 57.3428 200.408 57.3428Z" fill="#4F56D3"/>
<path d="M202.056 60.4446V59.2728H206.797V60.4446H205.064V65.3386H203.796V60.4446H202.056Z" fill="#4F56D3"/>
<path d="M207.202 63.9428C207.407 63.9428 207.578 64.0146 207.716 64.1582C207.854 64.3018 207.923 64.4799 207.923 64.6924C207.923 64.9049 207.854 65.083 207.716 65.2266C207.578 65.3702 207.407 65.442 207.202 65.442C206.992 65.442 206.815 65.3702 206.672 65.2266C206.534 65.083 206.464 64.9049 206.464 64.6924C206.464 64.4799 206.534 64.3018 206.672 64.1582C206.815 64.0146 206.992 63.9428 207.202 63.9428Z" fill="#4F56D3"/>
<path d="M209.647 63.9428C209.851 63.9428 210.023 64.0146 210.161 64.1582C210.299 64.3018 210.368 64.4799 210.368 64.6924C210.368 64.9049 210.299 65.083 210.161 65.2266C210.023 65.3702 209.851 65.442 209.647 65.442C209.437 65.442 209.26 65.3702 209.116 65.2266C208.978 65.083 208.909 64.9049 208.909 64.6924C208.909 64.4799 208.978 64.3018 209.116 64.1582C209.26 64.0146 209.437 63.9428 209.647 63.9428Z" fill="#4F56D3"/>
</svg>
