<svg width="154" height="88" viewBox="0 0 154 88" fill="none" xmlns="http://www.w3.org/2000/svg">
<path d="M113.903 13H59.2467V78.2" stroke="#263238" stroke-linecap="round" stroke-linejoin="round"/>
<path d="M59.2468 63.3999H11.3728V78.1999" stroke="#263238" stroke-linecap="round" stroke-linejoin="round"/>
<path d="M34.5117 63.3999L34.5117 78.1999" stroke="#263238" stroke-linecap="round" stroke-linejoin="round"/>
<path d="M134.648 26.2002V74.6002H113.504" stroke="#263238" stroke-linecap="round" stroke-linejoin="round"/>
<path d="M115.671 1H148.04C150.559 1 152.601 3.03551 152.601 5.54645V24.0536C152.601 26.5645 150.559 28.6 148.04 28.6H115.671C113.152 28.6 111.11 26.5645 111.11 24.0536V5.54645C111.11 3.03551 113.152 1 115.671 1Z" fill="#CDFF65" stroke="#263238" stroke-linecap="round" stroke-linejoin="round"/>
<path d="M88.9414 59H121.31C123.829 59 125.871 61.0355 125.871 63.5465V82.0535C125.871 84.5645 123.829 86.6 121.31 86.6H88.9414C86.4225 86.6 84.3805 84.5645 84.3805 82.0535V63.5465C84.3805 61.0355 86.4225 59 88.9414 59Z" fill="#515161" stroke="#263238" stroke-linecap="round" stroke-linejoin="round"/>
<path d="M38.6738 27.7998H71.0429C73.5618 27.7998 75.6038 29.8353 75.6038 32.3463V50.8534C75.6038 53.3643 73.5618 55.3998 71.0429 55.3998H38.6738C36.1549 55.3998 34.1129 53.3643 34.1129 50.8534V32.3463C34.1129 29.8353 36.1549 27.7998 38.6738 27.7998Z" fill="white" stroke="#263238" stroke-linecap="round" stroke-linejoin="round"/>
<path d="M53.2408 71.3999H66.8482C68.8193 71.3999 70.4172 72.97 70.4172 74.9068V81.493C70.4172 83.4298 68.8193 84.9999 66.8482 84.9999H53.2408C51.2697 84.9999 49.6718 83.4298 49.6718 81.493V74.9068C49.6718 72.97 51.2697 71.3999 53.2408 71.3999Z" fill="#D1D4FF" stroke="#263238" stroke-linecap="round" stroke-linejoin="round"/>
<path d="M29.3038 71.3999H42.9112C44.8823 71.3999 46.4802 72.97 46.4802 74.9068V81.493C46.4802 83.4298 44.8823 84.9999 42.9112 84.9999H29.3038C27.3327 84.9999 25.7348 83.4298 25.7348 81.493V74.9068C25.7348 72.97 27.3327 71.3999 29.3038 71.3999Z" fill="#D1D4FF" stroke="#263238" stroke-linecap="round" stroke-linejoin="round"/>
<path d="M4.96789 71.3999H18.5753C20.5464 71.3999 22.1443 72.97 22.1443 74.9068V81.493C22.1443 83.4298 20.5464 84.9999 18.5753 84.9999H4.96789C2.99678 84.9999 1.39888 83.4298 1.39888 81.493V74.9068C1.39888 72.97 2.99678 71.3999 4.96789 71.3999Z" fill="#D1D4FF" stroke="#263238" stroke-linecap="round" stroke-linejoin="round"/>
<path d="M140.633 14.6001H123.478" stroke="#263238" stroke-linecap="round" stroke-linejoin="round"/>
<path d="M113.903 72.6001H96.748" stroke="white" stroke-linecap="round" stroke-linejoin="round"/>
<path d="M113.903 76.2002H96.748" stroke="white" stroke-linecap="round" stroke-linejoin="round"/>
<path d="M64.832 42.6001H40.895" stroke="#263238" stroke-linecap="round" stroke-linejoin="round"/>
<path d="M64.832 39.3999H40.895" stroke="#263238" stroke-linecap="round" stroke-linejoin="round"/>
</svg>
