<svg width="182" height="182" viewBox="0 0 182 182" fill="none" xmlns="http://www.w3.org/2000/svg">
<path d="M91 1.12811e-05C110.212 1.04413e-05 128.931 6.08048 144.476 17.3704C160.021 28.6603 171.594 44.5804 177.537 62.8501C183.48 81.1199 183.488 100.802 177.56 119.077C171.633 137.351 160.074 153.281 144.538 164.584C129.003 175.887 110.289 181.984 91.0771 182C71.865 182.016 53.1407 175.952 37.5864 164.675C22.032 153.398 10.4458 137.488 4.48726 119.223C-1.47125 100.958 -1.49626 81.2765 4.41583 62.9968L26.0738 70.0014C21.6405 83.7087 21.6593 98.4675 26.1274 112.163C30.5954 125.859 39.2835 137.79 50.9471 146.246C62.6108 154.702 76.6514 159.25 91.0578 159.237C105.464 159.225 119.497 154.654 131.146 146.178C142.796 137.702 151.464 125.757 155.908 112.054C160.353 98.35 160.347 83.5913 155.891 69.8915C151.434 56.1917 142.756 44.2538 131.1 35.7879C119.443 27.322 105.406 22.7625 91 22.7625L91 1.12811e-05Z" fill="#4F56D3"/>
</svg>
