<svg width="58" height="58" viewBox="0 0 58 58" fill="none" xmlns="http://www.w3.org/2000/svg">
<rect width="58" height="58" rx="10" fill="#515161"/>
<path d="M29 16C20.3636 16 12.9882 21.598 10 29.5C12.9882 37.402 20.3636 43 29 43C37.645 43 45.0118 37.402 48 29.5C45.0118 21.598 37.645 16 29 16ZM29 38.5C24.2327 38.5 20.3636 34.468 20.3636 29.5C20.3636 24.532 24.2327 20.5 29 20.5C33.7673 20.5 37.6364 24.532 37.6364 29.5C37.6364 34.468 33.7673 38.5 29 38.5ZM29 24.1C26.1414 24.1 23.8182 26.521 23.8182 29.5C23.8182 32.479 26.1414 34.9 29 34.9C31.8586 34.9 34.1818 32.479 34.1818 29.5C34.1818 26.521 31.8586 24.1 29 24.1Z" fill="#CDFF65"/>
</svg>
