<svg width="38" height="27" viewBox="0 0 38 27" fill="none" xmlns="http://www.w3.org/2000/svg">
<path d="M19 0C10.3636 0 2.98818 5.598 0 13.5C2.98818 21.402 10.3636 27 19 27C27.645 27 35.0118 21.402 38 13.5C35.0118 5.598 27.645 0 19 0ZM19 22.5C14.2327 22.5 10.3636 18.468 10.3636 13.5C10.3636 8.532 14.2327 4.5 19 4.5C23.7673 4.5 27.6364 8.532 27.6364 13.5C27.6364 18.468 23.7673 22.5 19 22.5ZM19 8.1C16.1414 8.1 13.8182 10.521 13.8182 13.5C13.8182 16.479 16.1414 18.9 19 18.9C21.8586 18.9 24.1818 16.479 24.1818 13.5C24.1818 10.521 21.8586 8.1 19 8.1Z" fill="#CDFF65"/>
</svg>
