<svg width="16" height="19" viewBox="0 0 16 19" fill="none" xmlns="http://www.w3.org/2000/svg">
<path d="M15.5857 12.5387L14.2868 15.3465C13.3801 17.3066 12.1256 18.3236 12.073 18.3637C12.0204 18.4084 11.9594 18.4422 11.8935 18.4629C11.8276 18.4836 11.7583 18.4909 11.6895 18.4843C11.6208 18.4777 11.5541 18.4574 11.4933 18.4245C11.4326 18.3916 11.3791 18.3469 11.336 18.2929C11.2929 18.239 11.261 18.1769 11.2424 18.1105C11.2237 18.044 11.2186 17.9744 11.2273 17.9059C11.236 17.8374 11.2584 17.7714 11.2931 17.7117C11.3279 17.652 11.3742 17.5999 11.4295 17.5585C11.44 17.5501 12.5524 16.6396 13.3508 14.9136L14.6497 12.1057C14.7837 11.8161 14.7971 11.4851 14.6871 11.1856C14.577 10.8861 14.3525 10.6426 14.0629 10.5086C13.7733 10.3746 13.4424 10.3612 13.1428 10.4713C12.8433 10.5813 12.5998 10.8058 12.4658 11.0954L12.3215 11.4074C12.2641 11.5315 12.1597 11.6278 12.0314 11.6749C11.903 11.7221 11.7612 11.7163 11.6371 11.6589C11.5129 11.6015 11.4167 11.4971 11.3695 11.3688C11.3224 11.2404 11.3281 11.0986 11.3856 10.9745L12.1072 9.41452C12.2411 9.12492 12.2546 8.79396 12.1445 8.49445C12.0345 8.19494 11.8099 7.95141 11.5203 7.81745C11.2307 7.68348 10.8998 7.67004 10.6003 7.78009C10.3008 7.89014 10.0572 8.11466 9.92327 8.40427L9.4903 9.34023C9.43289 9.46434 9.32852 9.56057 9.20016 9.60773C9.07179 9.6549 8.92995 9.64914 8.80584 9.59172C8.68172 9.53431 8.5855 9.42994 8.53833 9.30158C8.49117 9.17322 8.49693 9.03137 8.55434 8.90726L11.0078 3.6035C11.1418 3.3139 11.1552 2.98294 11.0452 2.68343C10.9351 2.38392 10.7106 2.14039 10.421 2.00642C10.1314 1.87245 9.80043 1.85902 9.50092 1.96907C9.20141 2.07912 8.95789 2.30364 8.82392 2.59324L4.92722 11.0169C4.88011 11.1184 4.80123 11.2019 4.7025 11.2546C4.60377 11.3074 4.49056 11.3266 4.37996 11.3093C4.26935 11.292 4.16738 11.2393 4.08942 11.1589C4.01147 11.0786 3.96179 10.975 3.94786 10.864L3.57331 7.8501C3.5722 7.84454 3.57164 7.83889 3.57164 7.83323C3.54287 7.51543 3.38902 7.22208 3.14396 7.0177C2.89889 6.81333 2.58267 6.71468 2.26487 6.74346C1.94707 6.77223 1.65372 6.92608 1.44934 7.17114C1.24497 7.41621 1.14632 7.73243 1.1751 8.05023L1.65559 13.0069C1.66684 13.0766 1.66364 13.148 1.64616 13.2165C1.62869 13.2849 1.59733 13.3491 1.55402 13.4049C1.51071 13.4608 1.45638 13.5072 1.3944 13.5411C1.33242 13.5751 1.26412 13.596 1.19375 13.6024C1.12337 13.6089 1.05241 13.6008 0.985276 13.5787C0.918146 13.5566 0.856276 13.521 0.803509 13.4739C0.750742 13.4269 0.708206 13.3696 0.67854 13.3054C0.648874 13.2413 0.632713 13.1717 0.63106 13.101L0.148232 8.14333C0.0932762 7.55287 0.275129 6.96477 0.653784 6.5084C1.03244 6.05202 1.57688 5.76476 2.16733 5.70981C2.75779 5.65485 3.34589 5.8367 3.80227 6.21536C4.25864 6.59401 4.5459 7.13845 4.60086 7.72891L4.74895 8.94597L7.88796 2.16028C8.13676 1.62244 8.58902 1.20547 9.14526 1.00109C9.70149 0.796712 10.3161 0.821666 10.854 1.07046C11.3918 1.31926 11.8088 1.77152 12.0132 2.32776C12.2175 2.88399 12.1926 3.49863 11.9438 4.03647L10.7134 6.69615C11.0705 6.64734 11.4341 6.68564 11.7732 6.80778C12.1123 6.92992 12.4168 7.13228 12.6608 7.39758C12.9047 7.66289 13.0809 7.98327 13.1742 8.33139C13.2675 8.67952 13.2752 9.04505 13.1967 9.3968C13.5971 9.33135 14.0077 9.37614 14.3845 9.52636C14.7614 9.67658 15.0902 9.92657 15.3358 10.2495C15.5813 10.5724 15.7343 10.9561 15.7783 11.3594C15.8224 11.7627 15.7558 12.1703 15.5857 12.5387Z" fill="#D1D4FF"/>
</svg>
