<svg width="320" height="167" viewBox="0 0 320 167" fill="none" xmlns="http://www.w3.org/2000/svg">
<g opacity="0.1">
<path d="M-292.632 8.85477L-294.012 10.8238L-190.514 83.1862L-189.134 81.2172L-292.632 8.85477Z" fill="#CDFF65"/>
<path d="M371.114 47.888L301.246 96.9918L302.317 98.5116L372.185 49.4078L371.114 47.888Z" fill="#CDFF65"/>
<path d="M371.54 47.3719L244.75 57.7286L244.946 60.124L371.735 49.7674L371.54 47.3719Z" fill="#CDFF65"/>
<path d="M245.338 58.2857L244.416 59.6368L301.337 98.4084L302.26 97.0573L245.338 58.2857Z" fill="#CDFF65"/>
<path d="M-34.0123 16.5622L-35.1058 18.6472L73.558 75.5128L74.6516 73.4278L-34.0123 16.5622Z" fill="#CDFF65"/>
<path d="M-39.3385 4.50074L-40.1906 4.8412L-35.0182 17.7588L-34.1661 17.4183L-39.3385 4.50074Z" fill="#CDFF65"/>
<path d="M-235.833 35.1176L-236.964 36.2477L-190.396 82.7641L-189.265 81.634L-235.833 35.1176Z" fill="#CDFF65"/>
<path d="M-292.992 9.1365L-293.639 10.5576L-236.72 36.3963L-236.073 34.9752L-292.992 9.1365Z" fill="#CDFF65"/>
<path d="M-39.0992 4.64308L-40.4116 4.72013L-37.8316 48.6618L-36.5192 48.5847L-39.0992 4.64308Z" fill="#CDFF65"/>
<path d="M-36.9166 47.5149L-37.4245 49.6991L73.8285 75.5667L74.3364 73.3825L-36.9166 47.5149Z" fill="#CDFF65"/>
<path d="M-35.1534 17.5548L-34.0124 17.6415L-36.6045 48.6629L-37.7455 48.5638L-35.1534 17.5548Z" fill="#CDFF65"/>
<path d="M-38.0587 48.5623L-43.2901 133.847L-41.4332 133.961L-36.2018 48.6761L-38.0587 48.5623Z" fill="#CDFF65"/>
<path d="M-35.7198 17.5027L-43.5266 133.807L-41.2497 133.96L-33.4428 17.6555L-35.7198 17.5027Z" fill="#CDFF65"/>
<path d="M-235.529 35.6618L-237.252 35.721L-234.674 110.678L-232.951 110.619L-235.529 35.6618Z" fill="#CDFF65"/>
<path d="M-190.192 81.637L-234.213 110.008L-233.44 111.205L-189.419 82.8341L-190.192 81.637Z" fill="#CDFF65"/>
<path d="M-292.338 9.26277L-294.304 10.4207L-234.797 111.21L-232.831 110.052L-292.338 9.26277Z" fill="#CDFF65"/>
<path d="M-27.377 100.039L-26.2732 100.559L-41.7888 134.157L-42.905 133.637L-27.377 100.039Z" fill="#CDFF65"/>
<path d="M-36.4572 48.4755L-37.8678 48.7576L-27.5287 100.45L-26.1181 100.168L-36.4572 48.4755Z" fill="#CDFF65"/>
<path d="M-38.7615 4.54774L-40.7526 4.81658L-27.8393 100.446L-25.8482 100.178L-38.7615 4.54774Z" fill="#CDFF65"/>
<path d="M73.813 73.4202L-27.0695 99.3499L-26.5441 101.39L74.3384 75.4599L73.813 73.4202Z" fill="#CDFF65"/>
<path d="M-33.6665 17.5358L-35.4941 17.7069L-27.7486 100.412L-25.921 100.241L-33.6665 17.5358Z" fill="#CDFF65"/>
<path d="M-26.8933 99.1841L-26.7445 101.414L-140.587 109.169L-140.736 106.939L-26.8933 99.1841Z" fill="#CDFF65"/>
<path d="M-140.686 107.076L-140.637 109.033L-233.792 111.622L-233.842 109.653L-140.686 107.076Z" fill="#CDFF65"/>
<path d="M-140.401 107.051L-42.0864 132.894L-42.6073 134.901L-140.922 109.058L-140.401 107.051Z" fill="#CDFF65"/>
<path d="M-37.7115 47.6714L-141.27 107.01L-140.122 109.008L-36.5637 49.6702L-37.7115 47.6714Z" fill="#CDFF65"/>
<path d="M-235.698 34.7675L-237.097 36.6147L-141.367 108.987L-139.968 107.139L-235.698 34.7675Z" fill="#CDFF65"/>
<path d="M-189.477 81.5682L-190.159 82.8618L-141.001 108.707L-140.32 107.413L-189.477 81.5682Z" fill="#CDFF65"/>
<path d="M74.919 73.6386L160.31 161.512L158.624 163.147L73.2322 75.2739L74.919 73.6386Z" fill="#CDFF65"/>
<path d="M228.633 96.9811L158.814 161.63L160.172 163.092L229.99 98.4438L228.633 96.9811Z" fill="#CDFF65"/>
<path d="M244.251 58.7102L245.441 59.1809L229.913 97.9452L228.723 97.4745L244.251 58.7102Z" fill="#CDFF65"/>
<path d="M301.761 96.8674H229.318V98.5523H301.761V96.8674Z" fill="#CDFF65"/>
<path d="M372.385 48.3466L370.867 48.8519L391.558 110.874L393.076 110.369L372.385 48.3466Z" fill="#CDFF65"/>
<path d="M301.883 96.7452L301.607 98.6707L392.155 111.605L392.43 109.68L301.883 96.7452Z" fill="#CDFF65"/>
<path d="M136.985 11.5361L135.368 13.2987L228.513 98.5854L230.131 96.8229L136.985 11.5361Z" fill="#CDFF65"/>
<path d="M135.483 11.733L73.4374 73.8177L74.7804 75.1568L136.826 13.0721L135.483 11.733Z" fill="#CDFF65"/>
<path d="M136.643 11.3684L135.739 13.475L244.411 60.0002L245.315 57.8936L136.643 11.3684Z" fill="#CDFF65"/>
<path d="M136.861 12.2788L135.49 12.5676L145.831 61.6797L147.202 61.391L136.861 12.2788Z" fill="#CDFF65"/>
<path d="M146.919 60.6375L146.144 62.4081L228.932 98.5886L229.707 96.818L146.919 60.6375Z" fill="#CDFF65"/>
<path d="M147.553 61.4217L145.486 61.6864L158.398 162.477L160.465 162.212L147.553 61.4217Z" fill="#CDFF65"/>
<path d="M146.382 60.6924L146.68 62.3648L74.2244 75.2863L73.9268 73.6138L146.382 60.6924Z" fill="#CDFF65"/>
<path d="M244.821 57.9297L244.871 59.9614L146.556 62.5507L146.506 60.5189L244.821 57.9297Z" fill="#CDFF65"/>
<path d="M-165.72 35.3811L-167.367 35.9687L-141.484 108.336L-139.837 107.749L-165.72 35.3811Z" fill="#CDFF65"/>
<path d="M-167.315 34.9981L-165.777 36.3733L-233.048 111.325L-234.586 109.95L-167.315 34.9981Z" fill="#CDFF65"/>
<path d="M-166.533 34.8619H-236.397V36.5096H-166.533V34.8619Z" fill="#CDFF65"/>
<path d="M-167.148 35.3689L-190.508 81.8627L-189.244 82.4962L-165.885 36.0024L-167.148 35.3689Z" fill="#CDFF65"/>
<path d="M-298 9.84904C-298 7.27218 -295.904 5.17849 -293.324 5.17849C-290.745 5.17849 -288.649 7.27218 -288.649 9.84904C-288.649 12.4259 -290.732 14.5196 -293.324 14.5196C-295.916 14.5196 -298 12.4259 -298 9.84904Z" fill="#CDFF65"/>
<path d="M-194.501 82.2116C-194.501 79.6347 -192.405 77.541 -189.825 77.541C-187.245 77.541 -185.137 79.6347 -185.137 82.2116C-185.137 84.7884 -187.233 86.8821 -189.825 86.8821C-192.417 86.8821 -194.501 84.7884 -194.501 82.2116Z" fill="#CDFF65"/>
<path d="M297.085 97.7099C297.085 95.133 299.181 93.0393 301.773 93.0393C304.366 93.0393 306.449 95.133 306.449 97.7099C306.449 100.287 304.353 102.38 301.773 102.38C299.194 102.38 297.085 100.287 297.085 97.7099Z" fill="#CDFF65"/>
<path d="M366.949 48.6134C366.949 46.0241 369.045 43.9428 371.624 43.9428C374.204 43.9428 376.3 46.0365 376.3 48.6134C376.3 51.1902 374.204 53.2839 371.624 53.2839C369.045 53.2839 366.949 51.1902 366.949 48.6134Z" fill="#CDFF65"/>
<path d="M366.949 48.6134C366.949 46.0241 369.045 43.9428 371.624 43.9428C374.204 43.9428 376.3 46.0365 376.3 48.6134C376.3 51.1902 374.204 53.2839 371.624 53.2839C369.045 53.2839 366.949 51.1902 366.949 48.6134Z" fill="#CDFF65"/>
<path d="M240.17 58.9455C240.17 56.3563 242.266 54.275 244.846 54.275C247.426 54.275 249.534 56.3687 249.534 58.9455C249.534 61.5224 247.438 63.6161 244.846 63.6161C242.254 63.6161 240.17 61.5224 240.17 58.9455Z" fill="#CDFF65"/>
<path d="M297.085 97.7099C297.085 95.133 299.181 93.0393 301.773 93.0393C304.366 93.0393 306.449 95.133 306.449 97.7099C306.449 100.287 304.353 102.38 301.773 102.38C299.194 102.38 297.085 100.287 297.085 97.7099Z" fill="#CDFF65"/>
<path d="M240.17 58.9455C240.17 56.3563 242.266 54.275 244.846 54.275C247.426 54.275 249.534 56.3687 249.534 58.9455C249.534 61.5224 247.438 63.6161 244.846 63.6161C242.254 63.6161 240.17 61.5224 240.17 58.9455Z" fill="#CDFF65"/>
<path d="M-39.271 17.592C-39.271 15.0151 -37.175 12.9214 -34.5829 12.9214C-31.9908 12.9214 -29.9071 15.0151 -29.9071 17.592C-29.9071 20.1688 -32.0032 22.2625 -34.5829 22.2625C-37.1626 22.2625 -39.271 20.1688 -39.271 17.592Z" fill="#CDFF65"/>
<path d="M69.3998 74.4562C69.3998 71.8794 71.4958 69.7857 74.0756 69.7857C76.6553 69.7857 78.7513 71.8794 78.7513 74.4562C78.7513 77.0331 76.6553 79.1268 74.0756 79.1268C71.4958 79.1268 69.3998 77.0331 69.3998 74.4562Z" fill="#CDFF65"/>
<path d="M-39.271 17.592C-39.271 15.0151 -37.175 12.9214 -34.5829 12.9214C-31.9908 12.9214 -29.9071 15.0151 -29.9071 17.592C-29.9071 20.1688 -32.0032 22.2625 -34.5829 22.2625C-37.1626 22.2625 -39.271 20.1688 -39.271 17.592Z" fill="#CDFF65"/>
<path d="M-44.4305 4.67055C-44.4305 2.09369 -42.3345 0 -39.7547 0C-37.175 0 -35.079 2.09369 -35.079 4.67055C-35.079 7.2474 -37.175 9.3411 -39.7547 9.3411C-42.3345 9.3411 -44.4305 7.2474 -44.4305 4.67055Z" fill="#CDFF65"/>
<path d="M-194.501 82.2116C-194.501 79.6347 -192.405 77.541 -189.825 77.541C-187.245 77.541 -185.137 79.6347 -185.137 82.2116C-185.137 84.7884 -187.233 86.8821 -189.825 86.8821C-192.417 86.8821 -194.501 84.7884 -194.501 82.2116Z" fill="#CDFF65"/>
<path d="M-241.072 35.6795C-241.072 33.1027 -238.976 31.009 -236.397 31.009C-233.817 31.009 -231.721 33.1027 -231.721 35.6795C-231.721 38.2564 -233.817 40.3501 -236.397 40.3501C-238.976 40.3501 -241.072 38.2564 -241.072 35.6795Z" fill="#CDFF65"/>
<path d="M-298 9.84904C-298 7.27218 -295.904 5.17849 -293.324 5.17849C-290.745 5.17849 -288.649 7.27218 -288.649 9.84904C-288.649 12.4259 -290.732 14.5196 -293.324 14.5196C-295.916 14.5196 -298 12.4259 -298 9.84904Z" fill="#CDFF65"/>
<path d="M-241.072 35.6795C-241.072 33.1027 -238.976 31.009 -236.397 31.009C-233.817 31.009 -231.721 33.1027 -231.721 35.6795C-231.721 38.2564 -233.817 40.3501 -236.397 40.3501C-238.976 40.3501 -241.072 38.2564 -241.072 35.6795Z" fill="#CDFF65"/>
<path d="M-44.4305 4.67055C-44.4305 2.09369 -42.3345 0 -39.7547 0C-37.175 0 -35.079 2.09369 -35.079 4.67055C-35.079 7.2474 -37.175 9.3411 -39.7547 9.3411C-42.3345 9.3411 -44.4305 7.2474 -44.4305 4.67055Z" fill="#CDFF65"/>
<path d="M-41.8508 48.6134C-41.8508 46.0241 -39.7547 43.9428 -37.1626 43.9428C-34.5705 43.9428 -32.4868 46.0365 -32.4868 48.6134C-32.4868 51.1902 -34.5829 53.2839 -37.1626 53.2839C-39.7423 53.2839 -41.8508 51.1902 -41.8508 48.6134Z" fill="#CDFF65"/>
<path d="M69.3998 74.4562C69.3998 71.8794 71.4958 69.7857 74.0756 69.7857C76.6553 69.7857 78.7513 71.8794 78.7513 74.4562C78.7513 77.0331 76.6553 79.1268 74.0756 79.1268C71.4958 79.1268 69.3998 77.0331 69.3998 74.4562Z" fill="#CDFF65"/>
<path d="M-41.8508 48.6134C-41.8508 46.0241 -39.7547 43.9428 -37.1626 43.9428C-34.5705 43.9428 -32.4868 46.0365 -32.4868 48.6134C-32.4868 51.1902 -34.5829 53.2839 -37.1626 53.2839C-39.7423 53.2839 -41.8508 51.1902 -41.8508 48.6134Z" fill="#CDFF65"/>
<path d="M-39.271 17.592C-39.271 15.0151 -37.175 12.9214 -34.5829 12.9214C-31.9908 12.9214 -29.9071 15.0151 -29.9071 17.592C-29.9071 20.1688 -32.0032 22.2625 -34.5829 22.2625C-37.1626 22.2625 -39.271 20.1688 -39.271 17.592Z" fill="#CDFF65"/>
<path d="M-41.8508 48.6134C-41.8508 46.0241 -39.7547 43.9428 -37.1626 43.9428C-34.5705 43.9428 -32.4868 46.0365 -32.4868 48.6134C-32.4868 51.1902 -34.5829 53.2839 -37.1626 53.2839C-39.7423 53.2839 -41.8508 51.1902 -41.8508 48.6134Z" fill="#CDFF65"/>
<path d="M-41.8508 48.6134C-41.8508 46.0241 -39.7547 43.9428 -37.1626 43.9428C-34.5705 43.9428 -32.4868 46.0365 -32.4868 48.6134C-32.4868 51.1902 -34.5829 53.2839 -37.1626 53.2839C-39.7423 53.2839 -41.8508 51.1902 -41.8508 48.6134Z" fill="#CDFF65"/>
<path d="M-47.0226 133.897C-47.0226 131.32 -44.9266 129.227 -42.3468 129.227C-39.7671 129.227 -37.6711 131.32 -37.6711 133.897C-37.6711 136.474 -39.7671 138.568 -42.3468 138.568C-44.9266 138.568 -47.0226 136.474 -47.0226 133.897Z" fill="#CDFF65"/>
<path d="M-39.271 17.592C-39.271 15.0151 -37.175 12.9214 -34.5829 12.9214C-31.9908 12.9214 -29.9071 15.0151 -29.9071 17.592C-29.9071 20.1688 -32.0032 22.2625 -34.5829 22.2625C-37.1626 22.2625 -39.271 20.1688 -39.271 17.592Z" fill="#CDFF65"/>
<path d="M-47.0226 133.897C-47.0226 131.32 -44.9266 129.227 -42.3468 129.227C-39.7671 129.227 -37.6711 131.32 -37.6711 133.897C-37.6711 136.474 -39.7671 138.568 -42.3468 138.568C-44.9266 138.568 -47.0226 136.474 -47.0226 133.897Z" fill="#CDFF65"/>
<path d="M-241.072 35.6795C-241.072 33.1027 -238.976 31.009 -236.397 31.009C-233.817 31.009 -231.721 33.1027 -231.721 35.6795C-231.721 38.2564 -233.817 40.3501 -236.397 40.3501C-238.976 40.3501 -241.072 38.2564 -241.072 35.6795Z" fill="#CDFF65"/>
<path d="M-238.493 110.631C-238.493 108.054 -236.397 105.961 -233.817 105.961C-231.237 105.961 -229.141 108.054 -229.141 110.631C-229.141 113.208 -231.237 115.302 -233.817 115.302C-236.397 115.302 -238.493 113.208 -238.493 110.631Z" fill="#CDFF65"/>
<path d="M-194.501 82.2116C-194.501 79.6347 -192.405 77.541 -189.825 77.541C-187.245 77.541 -185.137 79.6347 -185.137 82.2116C-185.137 84.7884 -187.233 86.8821 -189.825 86.8821C-192.417 86.8821 -194.501 84.7884 -194.501 82.2116Z" fill="#CDFF65"/>
<path d="M-238.493 110.631C-238.493 108.054 -236.397 105.961 -233.817 105.961C-231.237 105.961 -229.141 108.054 -229.141 110.631C-229.141 113.208 -231.237 115.302 -233.817 115.302C-236.397 115.302 -238.493 113.208 -238.493 110.631Z" fill="#CDFF65"/>
<path d="M-298 9.84904C-298 7.27218 -295.904 5.17849 -293.324 5.17849C-290.745 5.17849 -288.649 7.27218 -288.649 9.84904C-288.649 12.4259 -290.732 14.5196 -293.324 14.5196C-295.916 14.5196 -298 12.4259 -298 9.84904Z" fill="#CDFF65"/>
<path d="M-238.493 110.631C-238.493 108.054 -236.397 105.961 -233.817 105.961C-231.237 105.961 -229.141 108.054 -229.141 110.631C-229.141 113.208 -231.237 115.302 -233.817 115.302C-236.397 115.302 -238.493 113.208 -238.493 110.631Z" fill="#CDFF65"/>
<path d="M-47.0226 133.897C-47.0226 131.32 -44.9266 129.227 -42.3468 129.227C-39.7671 129.227 -37.6711 131.32 -37.6711 133.897C-37.6711 136.474 -39.7671 138.568 -42.3468 138.568C-44.9266 138.568 -47.0226 136.474 -47.0226 133.897Z" fill="#CDFF65"/>
<path d="M-31.5071 100.299C-31.5071 97.7222 -29.411 95.6286 -26.8313 95.6286C-24.2516 95.6286 -22.1555 97.7222 -22.1555 100.299C-22.1555 102.876 -24.2516 104.97 -26.8313 104.97C-29.411 104.97 -31.5071 102.876 -31.5071 100.299Z" fill="#CDFF65"/>
<path d="M-41.8508 48.6134C-41.8508 46.0241 -39.7547 43.9428 -37.1626 43.9428C-34.5705 43.9428 -32.4868 46.0365 -32.4868 48.6134C-32.4868 51.1902 -34.5829 53.2839 -37.1626 53.2839C-39.7423 53.2839 -41.8508 51.1902 -41.8508 48.6134Z" fill="#CDFF65"/>
<path d="M-31.5071 100.299C-31.5071 97.7222 -29.411 95.6286 -26.8313 95.6286C-24.2516 95.6286 -22.1555 97.7222 -22.1555 100.299C-22.1555 102.876 -24.2516 104.97 -26.8313 104.97C-29.411 104.97 -31.5071 102.876 -31.5071 100.299Z" fill="#CDFF65"/>
<path d="M-44.4305 4.67055C-44.4305 2.09369 -42.3345 0 -39.7547 0C-37.175 0 -35.079 2.09369 -35.079 4.67055C-35.079 7.2474 -37.175 9.3411 -39.7547 9.3411C-42.3345 9.3411 -44.4305 7.2474 -44.4305 4.67055Z" fill="#CDFF65"/>
<path d="M-31.5071 100.299C-31.5071 97.7222 -29.411 95.6286 -26.8313 95.6286C-24.2516 95.6286 -22.1555 97.7222 -22.1555 100.299C-22.1555 102.876 -24.2516 104.97 -26.8313 104.97C-29.411 104.97 -31.5071 102.876 -31.5071 100.299Z" fill="#CDFF65"/>
<path d="M69.3998 74.4562C69.3998 71.8794 71.4958 69.7857 74.0756 69.7857C76.6553 69.7857 78.7513 71.8794 78.7513 74.4562C78.7513 77.0331 76.6553 79.1268 74.0756 79.1268C71.4958 79.1268 69.3998 77.0331 69.3998 74.4562Z" fill="#CDFF65"/>
<path d="M-31.5071 100.299C-31.5071 97.7222 -29.411 95.6286 -26.8313 95.6286C-24.2516 95.6286 -22.1555 97.7222 -22.1555 100.299C-22.1555 102.876 -24.2516 104.97 -26.8313 104.97C-29.411 104.97 -31.5071 102.876 -31.5071 100.299Z" fill="#CDFF65"/>
<path d="M-39.271 17.592C-39.271 15.0151 -37.175 12.9214 -34.5829 12.9214C-31.9908 12.9214 -29.9071 15.0151 -29.9071 17.592C-29.9071 20.1688 -32.0032 22.2625 -34.5829 22.2625C-37.1626 22.2625 -39.271 20.1688 -39.271 17.592Z" fill="#CDFF65"/>
<path d="M-31.5071 100.299C-31.5071 97.7222 -29.411 95.6286 -26.8313 95.6286C-24.2516 95.6286 -22.1555 97.7222 -22.1555 100.299C-22.1555 102.876 -24.2516 104.97 -26.8313 104.97C-29.411 104.97 -31.5071 102.876 -31.5071 100.299Z" fill="#CDFF65"/>
<path d="M-31.5071 100.299C-31.5071 97.7222 -29.411 95.6286 -26.8313 95.6286C-24.2516 95.6286 -22.1555 97.7222 -22.1555 100.299C-22.1555 102.876 -24.2516 104.97 -26.8313 104.97C-29.411 104.97 -31.5071 102.876 -31.5071 100.299Z" fill="#CDFF65"/>
<path d="M-145.35 108.054C-145.35 105.478 -143.254 103.384 -140.662 103.384C-138.07 103.384 -135.986 105.478 -135.986 108.054C-135.986 110.631 -138.082 112.725 -140.662 112.725C-143.241 112.725 -145.35 110.631 -145.35 108.054Z" fill="#CDFF65"/>
<path d="M-238.493 110.631C-238.493 108.054 -236.397 105.961 -233.817 105.961C-231.237 105.961 -229.141 108.054 -229.141 110.631C-229.141 113.208 -231.237 115.302 -233.817 115.302C-236.397 115.302 -238.493 113.208 -238.493 110.631Z" fill="#CDFF65"/>
<path d="M-145.35 108.054C-145.35 105.478 -143.254 103.384 -140.662 103.384C-138.07 103.384 -135.986 105.478 -135.986 108.054C-135.986 110.631 -138.082 112.725 -140.662 112.725C-143.241 112.725 -145.35 110.631 -145.35 108.054Z" fill="#CDFF65"/>
<path d="M-47.0226 133.897C-47.0226 131.32 -44.9266 129.227 -42.3468 129.227C-39.7671 129.227 -37.6711 131.32 -37.6711 133.897C-37.6711 136.474 -39.7671 138.568 -42.3468 138.568C-44.9266 138.568 -47.0226 136.474 -47.0226 133.897Z" fill="#CDFF65"/>
<path d="M-145.35 108.054C-145.35 105.478 -143.254 103.384 -140.662 103.384C-138.07 103.384 -135.986 105.478 -135.986 108.054C-135.986 110.631 -138.082 112.725 -140.662 112.725C-143.241 112.725 -145.35 110.631 -145.35 108.054Z" fill="#CDFF65"/>
<path d="M-41.8508 48.6134C-41.8508 46.0241 -39.7547 43.9428 -37.1626 43.9428C-34.5705 43.9428 -32.4868 46.0365 -32.4868 48.6134C-32.4868 51.1902 -34.5829 53.2839 -37.1626 53.2839C-39.7423 53.2839 -41.8508 51.1902 -41.8508 48.6134Z" fill="#CDFF65"/>
<path d="M-145.35 108.054C-145.35 105.478 -143.254 103.384 -140.662 103.384C-138.07 103.384 -135.986 105.478 -135.986 108.054C-135.986 110.631 -138.082 112.725 -140.662 112.725C-143.241 112.725 -145.35 110.631 -145.35 108.054Z" fill="#CDFF65"/>
<path d="M-241.072 35.6795C-241.072 33.1027 -238.976 31.009 -236.397 31.009C-233.817 31.009 -231.721 33.1027 -231.721 35.6795C-231.721 38.2564 -233.817 40.3501 -236.397 40.3501C-238.976 40.3501 -241.072 38.2564 -241.072 35.6795Z" fill="#CDFF65"/>
<path d="M-145.35 108.054C-145.35 105.478 -143.254 103.384 -140.662 103.384C-138.07 103.384 -135.986 105.478 -135.986 108.054C-135.986 110.631 -138.082 112.725 -140.662 112.725C-143.241 112.725 -145.35 110.631 -145.35 108.054Z" fill="#CDFF65"/>
<path d="M-194.501 82.2116C-194.501 79.6347 -192.405 77.541 -189.825 77.541C-187.245 77.541 -185.137 79.6347 -185.137 82.2116C-185.137 84.7884 -187.233 86.8821 -189.825 86.8821C-192.417 86.8821 -194.501 84.7884 -194.501 82.2116Z" fill="#CDFF65"/>
<path d="M-145.35 108.054C-145.35 105.478 -143.254 103.384 -140.662 103.384C-138.07 103.384 -135.986 105.478 -135.986 108.054C-135.986 110.631 -138.082 112.725 -140.662 112.725C-143.241 112.725 -145.35 110.631 -145.35 108.054Z" fill="#CDFF65"/>
<path d="M69.3998 74.4562C69.3998 71.8794 71.4958 69.7857 74.0756 69.7857C76.6553 69.7857 78.7513 71.8794 78.7513 74.4562C78.7513 77.0331 76.6553 79.1268 74.0756 79.1268C71.4958 79.1268 69.3998 77.0331 69.3998 74.4562Z" fill="#CDFF65"/>
<path d="M154.779 162.329C154.779 159.753 156.875 157.659 159.454 157.659C162.034 157.659 164.143 159.753 164.143 162.329C164.143 164.906 162.047 167 159.454 167C156.862 167 154.779 164.906 154.779 162.329Z" fill="#CDFF65"/>
<path d="M154.779 162.329C154.779 159.753 156.875 157.659 159.454 157.659C162.034 157.659 164.143 159.753 164.143 162.329C164.143 164.906 162.047 167 159.454 167C156.862 167 154.779 164.906 154.779 162.329Z" fill="#CDFF65"/>
<path d="M224.642 97.7099C224.642 95.133 226.738 93.0393 229.318 93.0393C231.898 93.0393 233.994 95.133 233.994 97.7099C233.994 100.287 231.898 102.38 229.318 102.38C226.738 102.38 224.642 100.287 224.642 97.7099Z" fill="#CDFF65"/>
<path d="M240.17 58.9455C240.17 56.3563 242.266 54.275 244.846 54.275C247.426 54.275 249.534 56.3687 249.534 58.9455C249.534 61.5224 247.438 63.6161 244.846 63.6161C242.254 63.6161 240.17 61.5224 240.17 58.9455Z" fill="#CDFF65"/>
<path d="M224.642 97.7099C224.642 95.133 226.738 93.0393 229.318 93.0393C231.898 93.0393 233.994 95.133 233.994 97.7099C233.994 100.287 231.898 102.38 229.318 102.38C226.738 102.38 224.642 100.287 224.642 97.7099Z" fill="#CDFF65"/>
<path d="M297.085 97.7099C297.085 95.133 299.181 93.0393 301.773 93.0393C304.366 93.0393 306.449 95.133 306.449 97.7099C306.449 100.287 304.353 102.38 301.773 102.38C299.194 102.38 297.085 100.287 297.085 97.7099Z" fill="#CDFF65"/>
<path d="M224.642 97.7099C224.642 95.133 226.738 93.0393 229.318 93.0393C231.898 93.0393 233.994 95.133 233.994 97.7099C233.994 100.287 231.898 102.38 229.318 102.38C226.738 102.38 224.642 100.287 224.642 97.7099Z" fill="#CDFF65"/>
<path d="M366.949 48.6134C366.949 46.0241 369.045 43.9428 371.624 43.9428C374.204 43.9428 376.3 46.0365 376.3 48.6134C376.3 51.1902 374.204 53.2839 371.624 53.2839C369.045 53.2839 366.949 51.1902 366.949 48.6134Z" fill="#CDFF65"/>
<path d="M387.648 110.631C387.648 108.054 389.745 105.961 392.324 105.961C394.904 105.961 397 108.054 397 110.631C397 113.208 394.904 115.302 392.324 115.302C389.745 115.302 387.648 113.208 387.648 110.631Z" fill="#CDFF65"/>
<path d="M297.085 97.7099C297.085 95.133 299.181 93.0393 301.773 93.0393C304.366 93.0393 306.449 95.133 306.449 97.7099C306.449 100.287 304.353 102.38 301.773 102.38C299.194 102.38 297.085 100.287 297.085 97.7099Z" fill="#CDFF65"/>
<path d="M387.648 110.631C387.648 108.054 389.745 105.961 392.324 105.961C394.904 105.961 397 108.054 397 110.631C397 113.208 394.904 115.302 392.324 115.302C389.745 115.302 387.648 113.208 387.648 110.631Z" fill="#CDFF65"/>
<path d="M224.642 97.7099C224.642 95.133 226.738 93.0393 229.318 93.0393C231.898 93.0393 233.994 95.133 233.994 97.7099C233.994 100.287 231.898 102.38 229.318 102.38C226.738 102.38 224.642 100.287 224.642 97.7099Z" fill="#CDFF65"/>
<path d="M131.499 12.4259C131.499 9.84903 133.595 7.75534 136.175 7.75534C138.755 7.75534 140.863 9.84903 140.863 12.4259C140.863 15.0027 138.767 17.0964 136.175 17.0964C133.583 17.0964 131.499 15.0027 131.499 12.4259Z" fill="#CDFF65"/>
<path d="M69.3998 74.4562C69.3998 71.8794 71.4958 69.7857 74.0756 69.7857C76.6553 69.7857 78.7513 71.8794 78.7513 74.4562C78.7513 77.0331 76.6553 79.1268 74.0756 79.1268C71.4958 79.1268 69.3998 77.0331 69.3998 74.4562Z" fill="#CDFF65"/>
<path d="M131.499 12.4259C131.499 9.84903 133.595 7.75534 136.175 7.75534C138.755 7.75534 140.863 9.84903 140.863 12.4259C140.863 15.0027 138.767 17.0964 136.175 17.0964C133.583 17.0964 131.499 15.0027 131.499 12.4259Z" fill="#CDFF65"/>
<path d="M240.17 58.9455C240.17 56.3563 242.266 54.275 244.846 54.275C247.426 54.275 249.534 56.3687 249.534 58.9455C249.534 61.5224 247.438 63.6161 244.846 63.6161C242.254 63.6161 240.17 61.5224 240.17 58.9455Z" fill="#CDFF65"/>
<path d="M131.499 12.4259C131.499 9.84903 133.595 7.75534 136.175 7.75534C138.755 7.75534 140.863 9.84903 140.863 12.4259C140.863 15.0027 138.767 17.0964 136.175 17.0964C133.583 17.0964 131.499 15.0027 131.499 12.4259Z" fill="#CDFF65"/>
<path d="M131.499 12.4259C131.499 9.84903 133.595 7.75534 136.175 7.75534C138.755 7.75534 140.863 9.84903 140.863 12.4259C140.863 15.0027 138.767 17.0964 136.175 17.0964C133.583 17.0964 131.499 15.0027 131.499 12.4259Z" fill="#CDFF65"/>
<path d="M141.855 61.5348C141.855 58.9579 143.951 56.8642 146.531 56.8642C149.111 56.8642 151.207 58.9579 151.207 61.5348C151.207 64.1116 149.111 66.2053 146.531 66.2053C143.951 66.2053 141.855 64.1116 141.855 61.5348Z" fill="#CDFF65"/>
<path d="M224.642 97.7099C224.642 95.133 226.738 93.0393 229.318 93.0393C231.898 93.0393 233.994 95.133 233.994 97.7099C233.994 100.287 231.898 102.38 229.318 102.38C226.738 102.38 224.642 100.287 224.642 97.7099Z" fill="#CDFF65"/>
<path d="M141.855 61.5348C141.855 58.9579 143.951 56.8642 146.531 56.8642C149.111 56.8642 151.207 58.9579 151.207 61.5348C151.207 64.1116 149.111 66.2053 146.531 66.2053C143.951 66.2053 141.855 64.1116 141.855 61.5348Z" fill="#CDFF65"/>
<path d="M154.779 162.329C154.779 159.753 156.875 157.659 159.454 157.659C162.034 157.659 164.143 159.753 164.143 162.329C164.143 164.906 162.047 167 159.454 167C156.862 167 154.779 164.906 154.779 162.329Z" fill="#CDFF65"/>
<path d="M141.855 61.5348C141.855 58.9579 143.951 56.8642 146.531 56.8642C149.111 56.8642 151.207 58.9579 151.207 61.5348C151.207 64.1116 149.111 66.2053 146.531 66.2053C143.951 66.2053 141.855 64.1116 141.855 61.5348Z" fill="#CDFF65"/>
<path d="M69.3998 74.4562C69.3998 71.8794 71.4958 69.7857 74.0756 69.7857C76.6553 69.7857 78.7513 71.8794 78.7513 74.4562C78.7513 77.0331 76.6553 79.1268 74.0756 79.1268C71.4958 79.1268 69.3998 77.0331 69.3998 74.4562Z" fill="#CDFF65"/>
<path d="M141.855 61.5348C141.855 58.9579 143.951 56.8642 146.531 56.8642C149.111 56.8642 151.207 58.9579 151.207 61.5348C151.207 64.1116 149.111 66.2053 146.531 66.2053C143.951 66.2053 141.855 64.1116 141.855 61.5348Z" fill="#CDFF65"/>
<path d="M240.17 58.9455C240.17 56.3563 242.266 54.275 244.846 54.275C247.426 54.275 249.534 56.3687 249.534 58.9455C249.534 61.5224 247.438 63.6161 244.846 63.6161C242.254 63.6161 240.17 61.5224 240.17 58.9455Z" fill="#CDFF65"/>
<path d="M141.855 61.5348C141.855 58.9579 143.951 56.8642 146.531 56.8642C149.111 56.8642 151.207 58.9579 151.207 61.5348C151.207 64.1116 149.111 66.2053 146.531 66.2053C143.951 66.2053 141.855 64.1116 141.855 61.5348Z" fill="#CDFF65"/>
<path d="M-145.35 108.054C-145.35 105.478 -143.254 103.384 -140.662 103.384C-138.07 103.384 -135.986 105.478 -135.986 108.054C-135.986 110.631 -138.082 112.725 -140.662 112.725C-143.241 112.725 -145.35 110.631 -145.35 108.054Z" fill="#CDFF65"/>
<path d="M-171.221 35.6795C-171.221 33.1027 -169.125 31.009 -166.533 31.009C-163.941 31.009 -161.858 33.1027 -161.858 35.6795C-161.858 38.2564 -163.954 40.3501 -166.533 40.3501C-169.113 40.3501 -171.221 38.2564 -171.221 35.6795Z" fill="#CDFF65"/>
<path d="M-238.493 110.631C-238.493 108.054 -236.397 105.961 -233.817 105.961C-231.237 105.961 -229.141 108.054 -229.141 110.631C-229.141 113.208 -231.237 115.302 -233.817 115.302C-236.397 115.302 -238.493 113.208 -238.493 110.631Z" fill="#CDFF65"/>
<path d="M-171.221 35.6795C-171.221 33.1027 -169.125 31.009 -166.533 31.009C-163.941 31.009 -161.858 33.1027 -161.858 35.6795C-161.858 38.2564 -163.954 40.3501 -166.533 40.3501C-169.113 40.3501 -171.221 38.2564 -171.221 35.6795Z" fill="#CDFF65"/>
<path d="M-241.072 35.6795C-241.072 33.1027 -238.976 31.009 -236.397 31.009C-233.817 31.009 -231.721 33.1027 -231.721 35.6795C-231.721 38.2564 -233.817 40.3501 -236.397 40.3501C-238.976 40.3501 -241.072 38.2564 -241.072 35.6795Z" fill="#CDFF65"/>
<path d="M-171.221 35.6795C-171.221 33.1027 -169.125 31.009 -166.533 31.009C-163.941 31.009 -161.858 33.1027 -161.858 35.6795C-161.858 38.2564 -163.954 40.3501 -166.533 40.3501C-169.113 40.3501 -171.221 38.2564 -171.221 35.6795Z" fill="#CDFF65"/>
<path d="M-194.501 82.2116C-194.501 79.6347 -192.405 77.541 -189.825 77.541C-187.245 77.541 -185.137 79.6347 -185.137 82.2116C-185.137 84.7884 -187.233 86.8821 -189.825 86.8821C-192.417 86.8821 -194.501 84.7884 -194.501 82.2116Z" fill="#CDFF65"/>
<path d="M-171.221 35.6795C-171.221 33.1027 -169.125 31.009 -166.533 31.009C-163.941 31.009 -161.858 33.1027 -161.858 35.6795C-161.858 38.2564 -163.954 40.3501 -166.533 40.3501C-169.113 40.3501 -171.221 38.2564 -171.221 35.6795Z" fill="#CDFF65"/>
</g>
</svg>
