<svg width="48" height="45" viewBox="0 0 48 45" fill="none" xmlns="http://www.w3.org/2000/svg">
<path d="M14.2253 13.6471H34.0575H14.2253ZM14.2253 23.7647H29.0995H14.2253ZM16.7043 36.4118H9.26719C7.29474 36.4118 5.40308 35.6123 4.00836 34.1892C2.61363 32.7662 1.83008 30.8361 1.83008 28.8235V8.58824C1.83008 6.57571 2.61363 4.64561 4.00836 3.22254C5.40308 1.79947 7.29474 1 9.26719 1H39.0156C40.9881 1 42.8797 1.79947 44.2744 3.22254C45.6692 4.64561 46.4527 6.57571 46.4527 8.58824V28.8235C46.4527 30.8361 45.6692 32.7662 44.2744 34.1892C42.8797 35.6123 40.9881 36.4118 39.0156 36.4118H31.5785L24.1414 44L16.7043 36.4118Z" fill="white"/>
<path d="M14.2253 13.6471H34.0575M14.2253 23.7647H29.0995M16.7043 36.4118H9.26718C7.29474 36.4118 5.40308 35.6123 4.00836 34.1892C2.61363 32.7662 1.83008 30.8361 1.83008 28.8235V8.58824C1.83008 6.57571 2.61363 4.64561 4.00836 3.22254C5.40308 1.79947 7.29474 1 9.26718 1H39.0156C40.9881 1 42.8797 1.79947 44.2744 3.22254C45.6692 4.64561 46.4527 6.57571 46.4527 8.58824V28.8235C46.4527 30.8361 45.6692 32.7662 44.2744 34.1892C42.8797 35.6123 40.9881 36.4118 39.0156 36.4118H31.5785L24.1414 44L16.7043 36.4118Z" stroke="#161919" stroke-width="2" stroke-linecap="round" stroke-linejoin="round"/>
</svg>
