<svg width="261" height="42" viewBox="0 0 261 42" fill="none" xmlns="http://www.w3.org/2000/svg">
<path d="M9.08833 1.01121L25.6745 26.3449V1.01121H34.0244V40.9999H25.8449L8.3499 14.4165V40.9999H0V1.01121H9.08833Z" fill="#1E2121"/>
<path d="M69.2457 8.73629H51.1258V16.9158H68.1665V24.3569H51.1258V33.2748H69.2457V40.9999H42.4351V1.01121H69.2457V8.73629Z" fill="#1E2121"/>
<path d="M100.527 40.9999L91.7225 27.3106L82.9749 40.9999H73.2618L86.4399 20.8919L73.3754 1.01121H83.3158L91.9497 14.6437L100.697 1.01121H110.297L97.2323 21.0623L110.41 40.9999H100.527Z" fill="#1E2121"/>
<path d="M113.38 8.73629V1.01121H145.871V8.73629H134V40.9999H125.309V8.73629H113.38Z" fill="#1E2121"/>
<path d="M151.823 40.9999V1.01121H167.955C172.045 1.01121 175.169 1.99578 177.328 3.96492C179.524 5.93406 180.622 8.43335 180.622 11.4628C180.622 13.6213 180.111 15.4389 179.088 16.9158C178.104 18.3548 176.873 19.3961 175.396 20.0399C177.214 20.5701 178.786 21.6493 180.111 23.2776C181.474 24.8681 182.156 26.9508 182.156 29.5258C182.156 32.8961 180.925 35.6605 178.464 37.8189C176.04 39.9396 172.764 40.9999 168.637 40.9999H151.823ZM167.558 23.9592H160.457V33.786H167.501C169.281 33.786 170.701 33.3505 171.761 32.4796C172.821 31.6086 173.351 30.4157 173.351 28.901C173.351 27.3863 172.821 26.1935 171.761 25.3225C170.739 24.4137 169.337 23.9592 167.558 23.9592ZM166.592 8.22508H160.457V17.1998H166.819C168.448 17.1998 169.697 16.7833 170.568 15.9502C171.439 15.1171 171.875 14.0378 171.875 12.7124C171.875 11.2735 171.42 10.1753 170.511 9.41792C169.603 8.62269 168.296 8.22508 166.592 8.22508Z" fill="#1E2121"/>
<path d="M192.01 6.0666C195.57 2.24193 200.19 0.32959 205.87 0.32959C211.55 0.32959 216.151 2.24193 219.673 6.0666C223.232 9.8534 225.012 14.833 225.012 21.0055C225.012 27.178 223.232 32.1766 219.673 36.0013C216.151 39.7881 211.55 41.6815 205.87 41.6815C200.19 41.6815 195.57 39.7881 192.01 36.0013C188.488 32.1766 186.727 27.178 186.727 21.0055C186.727 14.833 188.488 9.8534 192.01 6.0666ZM198.315 30.3211C200.171 32.7068 202.689 33.8996 205.87 33.8996C209.051 33.8996 211.55 32.7068 213.368 30.3211C215.223 27.8975 216.151 24.7923 216.151 21.0055C216.151 17.2187 215.223 14.1325 213.368 11.7468C211.55 9.32325 209.051 8.11147 205.87 8.11147C202.689 8.11147 200.171 9.32325 198.315 11.7468C196.497 14.1325 195.589 17.2187 195.589 21.0055C195.589 24.7923 196.497 27.8975 198.315 30.3211Z" fill="#1E2121"/>
<path d="M227.539 8.73629V1.01121H260.03V8.73629H248.158V40.9999H239.468V8.73629H227.539Z" fill="#1E2121"/>
</svg>
