<svg width="16" height="9" viewBox="0 0 16 9" fill="none" xmlns="http://www.w3.org/2000/svg">
<path d="M0 0.5C0 0.223858 0.223858 0 0.5 0H15.5C15.7761 0 16 0.223858 16 0.5C16 0.776142 15.7761 1 15.5 1H0.5C0.223858 1 0 0.776142 0 0.5Z" fill="#4F56D3"/>
<path d="M0 4.5C0 4.22386 0.223858 4 0.5 4H15.5C15.7761 4 16 4.22386 16 4.5C16 4.77614 15.7761 5 15.5 5H0.5C0.223858 5 0 4.77614 0 4.5Z" fill="#4F56D3"/>
<path d="M0 8.5C0 8.22386 0.223858 8 0.5 8H15.5C15.7761 8 16 8.22386 16 8.5C16 8.77614 15.7761 9 15.5 9H0.5C0.223858 9 0 8.77614 0 8.5Z" fill="#4F56D3"/>
</svg>
