<svg width="190" height="107" viewBox="0 0 190 107" fill="none" xmlns="http://www.w3.org/2000/svg">
<g clip-path="url(#clip0_332_45)">
<path d="M137.055 61.5292C133.057 54.6447 116.522 48.6463 98.1595 47.9078C98.1089 47.9078 98.0639 47.9078 98.0133 47.9021C97.4117 47.8794 96.8102 47.8624 96.203 47.851V47.834C95.8937 47.834 95.5901 47.834 95.2809 47.8453C94.9773 47.8453 94.6681 47.834 94.3645 47.834V47.851C93.7573 47.8624 93.1557 47.8794 92.5541 47.9021C92.5035 47.9021 92.4529 47.9021 92.3967 47.9078C74.0342 48.6519 57.5047 54.6447 53.5072 61.5292C49.2399 68.8852 42.9148 80.723 42.9148 80.723C46.4568 86.5169 60.0628 87.2951 60.0628 87.2951L60.7881 102.888H129.768L130.493 87.2951C130.493 87.2951 144.099 86.5226 147.641 80.723C147.641 80.723 141.322 68.8852 137.049 61.5292H137.055Z" fill="#CDFF65" stroke="#263238" stroke-linecap="round" stroke-linejoin="round"/>
<path d="M75.0069 97.2697C75.0069 97.2697 43.2128 102.66 40.9245 98.2581C40.694 97.815 40.5422 97.2867 40.4635 96.6903C39.7157 91.3792 44.2754 80.9047 44.2754 80.9047C47.8118 80.5639 51.5225 81.4898 54.4911 82.5861C54.4911 82.5861 54.493 82.5861 54.4967 82.5861C57.9488 83.8698 60.4001 85.3978 60.4226 85.466L60.1865 85.9886L60.1078 86.1533L67.5348 86.3919L74.1804 86.6078H74.3322V86.6248L75.0069 97.2697Z" fill="white"/>
<mask id="mask0_332_45" style="mask-type:luminance" maskUnits="userSpaceOnUse" x="40" y="80" width="36" height="20">
<path d="M75.0069 97.2697C75.0069 97.2697 43.2128 102.66 40.9245 98.2581C40.694 97.815 40.5422 97.2867 40.4635 96.6903C39.7157 91.3792 44.2754 80.9047 44.2754 80.9047C47.8118 80.5639 51.5225 81.4898 54.4911 82.5861C54.4911 82.5861 54.493 82.5861 54.4967 82.5861C57.9488 83.8698 60.4001 85.3978 60.4226 85.466L60.1865 85.9886L60.1078 86.1533L67.5348 86.3919L74.1804 86.6078H74.3322V86.6248L75.0069 97.2697Z" fill="white"/>
</mask>
<g mask="url(#mask0_332_45)">
<path opacity="0.2" d="M60.1864 85.9884C52.9112 86.1305 50.1506 87.1415 50.1506 87.1415C50.1506 87.1415 51.9891 84.2162 54.4911 82.5859C54.4911 82.5859 54.4929 82.5859 54.4967 82.5859C57.9488 83.8697 60.4001 85.3977 60.4226 85.4659L60.1864 85.9884Z" fill="#92E3A9"/>
<path opacity="0.2" d="M75.0068 97.2696C75.0068 97.2696 43.2127 102.66 40.9244 98.258C40.6939 97.8149 40.5421 97.2866 40.4634 96.6902C41.2786 97.0026 42.1107 97.2071 42.9203 97.2355C47.0808 97.3832 68.0632 94.7646 68.0632 94.7646L67.5348 86.3918L67.5179 86.1191C69.5307 86.2214 71.7459 86.3748 74.1803 86.6076L74.3321 86.6247L75.0068 97.2696Z" fill="#92E3A9"/>
</g>
<path d="M75.0069 97.2697C75.0069 97.2697 43.2128 102.66 40.9245 98.2581C40.694 97.815 40.5422 97.2867 40.4635 96.6903C39.7157 91.3792 44.2754 80.9047 44.2754 80.9047C47.8118 80.5639 51.5225 81.4898 54.4911 82.5861C54.4911 82.5861 54.493 82.5861 54.4967 82.5861C57.9488 83.8698 60.4001 85.3978 60.4226 85.466L60.1865 85.9886L60.1078 86.1533L67.5348 86.3919L74.1804 86.6078H74.3322V86.6248L75.0069 97.2697Z" stroke="#263238" stroke-linecap="round" stroke-linejoin="round"/>
<path d="M60.1077 86.1476C60.1077 86.1476 52.5963 85.9487 49.3972 87.4313" stroke="#263238" stroke-linecap="round" stroke-linejoin="round"/>
<path d="M127.693 83.9948C127.693 83.9948 124.747 70.2428 130.46 63.5854" stroke="#263238" stroke-linecap="round" stroke-linejoin="round"/>
<path d="M132.692 70.436C132.692 70.436 128.824 73.2648 128.126 77.8659" stroke="#263238" stroke-linecap="round" stroke-linejoin="round"/>
<path d="M60.1079 61.9834C60.1079 61.9834 65.3198 72.2591 62.3119 84.7558" stroke="#263238" stroke-linecap="round" stroke-linejoin="round"/>
<path d="M56.324 66.7437C56.324 66.7437 60.4451 69.2771 62.3061 73.2306" stroke="#263238" stroke-linecap="round" stroke-linejoin="round"/>
<path d="M107.852 49.5381C107.852 49.5381 101.758 65.2555 83.6204 56.735" stroke="#263238" stroke-linecap="round" stroke-linejoin="round"/>
<path d="M136.11 60.1943C136.11 60.1943 132.18 62.5062 130.409 67.6185" stroke="#263238" stroke-linecap="round" stroke-linejoin="round"/>
<path d="M54.4517 60.1943C54.4517 60.1943 57.5552 61.8473 59.315 65.8235" stroke="#263238" stroke-linecap="round" stroke-linejoin="round"/>
<path d="M81.2251 49.021C81.2251 49.021 83.2435 57.3938 94.8367 57.5812" stroke="#263238" stroke-linecap="round" stroke-linejoin="round"/>
<path d="M118.99 57.5815C118.99 57.5815 97.4398 78.8543 82.1641 79.6268" stroke="#263238" stroke-linecap="round" stroke-linejoin="round"/>
<path d="M70.0762 61.1826C70.0762 61.1826 73.0616 67.9535 78.504 70.4358" stroke="#263238" stroke-linecap="round" stroke-linejoin="round"/>
<path d="M115.718 97.2697C115.718 97.2697 147.512 102.66 149.8 98.2581C150.031 97.815 150.183 97.2867 150.261 96.6903C151.009 91.3792 146.45 80.9047 146.45 80.9047C142.913 80.5639 139.202 81.4898 136.234 82.5861C132.782 83.8698 130.33 85.3978 130.308 85.466L130.544 85.9886L130.623 86.1533L123.196 86.3919L116.55 86.6078H116.398V86.6248L115.724 97.2697H115.718Z" fill="white"/>
<mask id="mask1_332_45" style="mask-type:luminance" maskUnits="userSpaceOnUse" x="115" y="80" width="36" height="20">
<path d="M115.718 97.2697C115.718 97.2697 147.512 102.66 149.8 98.2581C150.031 97.815 150.183 97.2867 150.261 96.6903C151.009 91.3792 146.45 80.9047 146.45 80.9047C142.913 80.5639 139.202 81.4898 136.234 82.5861C132.782 83.8698 130.33 85.3978 130.308 85.466L130.544 85.9886L130.623 86.1533L123.196 86.3919L116.55 86.6078H116.398V86.6248L115.724 97.2697H115.718Z" fill="white"/>
</mask>
<g mask="url(#mask1_332_45)">
<path opacity="0.2" d="M130.538 85.9884C137.814 86.1305 140.574 87.1415 140.574 87.1415C140.574 87.1415 138.736 84.2162 136.234 82.5859C132.782 83.8697 130.33 85.3977 130.308 85.4659L130.544 85.9884H130.538Z" fill="#92E3A9"/>
<path opacity="0.2" d="M115.718 97.2696C115.718 97.2696 147.512 102.66 149.8 98.258C150.031 97.8149 150.183 97.2866 150.261 96.6902C149.446 97.0026 148.614 97.2071 147.804 97.2355C143.644 97.3832 122.662 94.7646 122.662 94.7646L123.19 86.3918L123.207 86.1191C121.194 86.2214 118.979 86.3748 116.544 86.6076C116.494 86.6133 116.443 86.619 116.393 86.6247L115.718 97.2696Z" fill="#92E3A9"/>
</g>
<path d="M115.718 97.2697C115.718 97.2697 147.512 102.66 149.8 98.2581C150.031 97.815 150.183 97.2867 150.261 96.6903C151.009 91.3792 146.45 80.9047 146.45 80.9047C142.913 80.5639 139.202 81.4898 136.234 82.5861C132.782 83.8698 130.33 85.3978 130.308 85.466L130.544 85.9886L130.623 86.1533L123.196 86.3919L116.55 86.6078H116.398V86.6248L115.724 97.2697H115.718Z" stroke="#263238" stroke-linecap="round" stroke-linejoin="round"/>
<path d="M130.617 86.1476C130.617 86.1476 138.129 85.9487 141.328 87.4313" stroke="#263238" stroke-linecap="round" stroke-linejoin="round"/>
<path d="M106.053 49.5666C106.053 49.5666 102.618 55.8263 94.6288 55.4343C88.0901 55.1049 83.6204 50.0948 83.6204 50.0948C85.9705 48.1692 86.3191 43.5114 86.156 40.4553C86.156 40.3872 86.156 40.319 86.1448 40.2509C86.1335 40.052 86.1167 39.8532 86.0998 39.6601C85.9199 37.4505 85.5038 35.7861 85.5038 35.7861L105.075 36.7745C104.232 39.1375 103.861 41.1143 103.788 42.7445C103.743 43.767 103.81 44.6531 103.939 45.4199C103.939 45.454 103.951 45.4767 103.956 45.5051C104.496 48.4475 106.053 49.5609 106.053 49.5609V49.5666Z" fill="white" stroke="#263238" stroke-miterlimit="10"/>
<path d="M62.3062 94.6001V96.7132C62.3062 97.3778 62.8403 97.9174 63.4981 97.9174H126.502C127.159 97.9174 127.693 97.3778 127.693 96.7132V94.6001H62.3118H62.3062Z" fill="#757575" stroke="#263238" stroke-linecap="round" stroke-linejoin="round"/>
<path d="M135.43 63.5119L127.311 94.1401C127.143 94.7593 126.631 95.2989 126.041 95.5375C125.827 95.6227 125.613 95.6738 125.388 95.6738H64.6113C64.392 95.6738 64.1728 95.6227 63.9591 95.5375C63.3688 95.2989 62.8571 94.7593 62.6885 94.1401L54.5699 63.5119C54.345 62.6655 54.8397 61.9839 55.6775 61.9839H134.322C135.16 61.9839 135.655 62.6712 135.43 63.5119Z" fill="#BFBFBF" stroke="#263238" stroke-miterlimit="10"/>
<path d="M134.103 65.1139L126.035 95.532C125.821 95.6172 125.608 95.6683 125.383 95.6683H64.6057C64.3865 95.6683 64.1672 95.6172 63.9535 95.532L55.8855 65.1139C55.6606 64.2676 56.1554 63.5859 56.9931 63.5859H132.99C133.827 63.5859 134.322 64.2733 134.097 65.1139H134.103Z" fill="#999999" stroke="#263238" stroke-linecap="round" stroke-linejoin="round"/>
<path d="M99.1154 82.2344C97.3163 82.2344 95.8601 81.1437 95.8601 79.8032C95.8601 79.4908 95.9388 79.2011 96.085 78.9284C95.7364 78.8659 95.3766 78.8262 95.0055 78.8262C92.4867 78.8262 90.4402 80.3542 90.4402 82.2344C90.4402 84.1145 92.4811 85.6425 95.0055 85.6425C97.5299 85.6425 99.5708 84.1145 99.5708 82.2344C99.5708 82.223 99.5708 82.2173 99.5708 82.2116C99.4246 82.2287 99.2784 82.2344 99.121 82.2344H99.1154Z" fill="#BFBFBF" stroke="#263238" stroke-miterlimit="10"/>
<path d="M105.075 36.7802C104.232 39.1432 103.861 41.1199 103.788 42.7502C101.662 44.8974 99.0593 46.4992 96.1863 46.0448C92.0314 45.3802 88.5737 42.2787 86.0999 39.6601C85.92 37.4505 85.5039 35.7861 85.5039 35.7861L105.075 36.7745V36.7802Z" fill="#263238"/>
<path d="M109.061 22.3804C109.061 22.3804 110.641 20.6479 111.411 21.2159C112.187 21.784 113.104 23.3972 112.682 24.8684C112.26 26.3396 110.427 28.9071 110.287 30.401C110.146 31.8949 109.196 33.5877 108.156 32.5993C107.116 31.6109 109.061 22.3747 109.061 22.3747V22.3804Z" fill="white" stroke="#263238" stroke-miterlimit="10"/>
<path d="M80.9329 22.3804C80.9329 22.3804 79.3531 20.6479 78.5772 21.2159C77.8013 21.784 76.8849 23.3972 77.3066 24.8684C77.7282 26.3396 79.5611 28.9071 79.7017 30.401C79.8422 31.8949 80.7924 33.5877 81.8325 32.5993C82.8726 31.6109 80.9273 22.3747 80.9273 22.3747L80.9329 22.3804Z" fill="white" stroke="#263238" stroke-miterlimit="10"/>
<path d="M94.6683 2.35742C114.515 2.35742 109.798 29.0662 106.143 37.6378C104.862 40.6484 98.216 44.6019 95 44.6019C92.009 44.6019 85.1723 39.8815 83.9578 37.0528C80.264 28.4357 75.7493 2.35742 94.6683 2.35742Z" fill="white" stroke="#263238" stroke-miterlimit="10"/>
<path d="M102.882 9.18529C102.882 9.18529 95.7645 11.8891 87.5897 9.18529C87.5897 9.18529 84.9135 9.02624 83.8565 10.3895C82.7995 11.7528 83.8565 15.9505 84.1376 17.6603C84.4187 19.3701 81.81 20.5573 82.1642 24.8743L81.1578 26.3625C81.1578 26.3625 78.3579 19.4098 79.0607 13.4285C79.7635 7.44712 83.5023 5.12387 83.5023 5.12387C83.4967 5.12955 85.2002 -0.039534 95.1911 0.000228227C105.958 0.0399904 107.043 5.93047 107.043 5.93047C107.043 5.93047 114.341 10.8496 108.943 26.8738L107.774 24.88C107.774 24.88 108.342 21.6536 106.413 18.8021C105.474 17.4161 106.975 13.2467 106.621 11.1109C106.267 8.97512 102.888 9.19097 102.888 9.19097L102.882 9.18529Z" fill="#263238"/>
<path d="M108.825 12.1104C108.825 12.1104 105.913 16.1094 99.301 18.8757V16.9728C99.301 16.9728 93.3245 20.4548 87.9383 19.9265L89.1584 17.4499C89.1584 17.4499 84.6212 22.3066 80.7811 22.1191C76.9355 21.9203 75.8167 0 95.1911 0C110.934 0 108.825 12.1104 108.825 12.1104Z" fill="#263238"/>
<path d="M105.564 13.4342C105.564 13.4342 104.53 19.2338 109.944 23.477C109.944 23.477 113.154 19.995 111.917 13.4342C110.68 6.87344 107.858 6.66895 107.858 6.66895L105.57 13.4342H105.564Z" fill="#263238"/>
<path opacity="0.2" d="M103.152 4.37988C103.152 4.37988 101.134 13.0424 93.7124 17.4446" stroke="white" stroke-miterlimit="10"/>
<path opacity="0.2" d="M98.4294 4.37988C98.4294 4.37988 95.1404 12.9003 82.9119 14.3204" stroke="white" stroke-miterlimit="10"/>
<path opacity="0.2" d="M106.053 7.56641C106.053 7.56641 106.104 12.0482 103.152 14.3203" stroke="white" stroke-miterlimit="10"/>
<path d="M8.9787 106.716H0.281006V99.167C0.281006 98.474 0.837614 97.9116 1.52353 97.9116H188.471C189.157 97.9116 189.713 98.474 189.713 99.167V106.716" fill="white"/>
<path d="M8.9787 106.716H0.281006V99.167C0.281006 98.474 0.837613 97.9116 1.52353 97.9116H188.471C189.157 97.9116 189.713 98.474 189.713 99.167V106.716" stroke="#263238" stroke-miterlimit="10"/>
<path d="M179.616 106.716H101.859" stroke="#263238" stroke-miterlimit="10"/>
<path d="M96.2873 106.716H90.6987" stroke="#263238" stroke-miterlimit="10"/>
<path d="M54.5137 106.716H13.4766" stroke="#263238" stroke-miterlimit="10"/>
</g>
<defs>
<clipPath id="clip0_332_45">
<rect width="190" height="107" fill="white"/>
</clipPath>
</defs>
</svg>
