<svg width="260" height="223" viewBox="0 0 260 223" fill="none" xmlns="http://www.w3.org/2000/svg">
<g clip-path="url(#clip0_339_278)">
<path d="M138.408 44.1067V47.9515" stroke="#263238" stroke-linecap="round" stroke-linejoin="round"/>
<path d="M138.408 52.0974V58.3132" stroke="#263238" stroke-linecap="round" stroke-linejoin="round"/>
<path d="M138.408 60.3894V64.2342" stroke="#263238" stroke-linecap="round" stroke-linejoin="round"/>
<path d="M199.694 109.161H195.852" stroke="#263238" stroke-linecap="round" stroke-linejoin="round"/>
<path d="M191.708 109.161H185.497" stroke="#263238" stroke-linecap="round" stroke-linejoin="round"/>
<path d="M183.422 109.161H179.579" stroke="#263238" stroke-linecap="round" stroke-linejoin="round"/>
<path d="M97.231 109.161H93.3887" stroke="#263238" stroke-linecap="round" stroke-linejoin="round"/>
<path d="M89.2453 109.161H83.0334" stroke="#263238" stroke-linecap="round" stroke-linejoin="round"/>
<path d="M80.9586 109.161H77.1162" stroke="#263238" stroke-linecap="round" stroke-linejoin="round"/>
<path d="M244.291 122.195C244.291 121.516 244.65 121.131 245.303 121.131C245.956 121.131 246.315 121.522 246.315 122.195V124.399C246.315 125.079 245.956 125.463 245.303 125.463C244.65 125.463 244.291 125.072 244.291 124.399V122.195ZM244.957 124.444C244.957 124.745 245.091 124.861 245.303 124.861C245.514 124.861 245.649 124.745 245.649 124.444V122.157C245.649 121.855 245.514 121.74 245.303 121.74C245.091 121.74 244.957 121.855 244.957 122.157V124.444Z" fill="#263238"/>
<path d="M244.759 127.776C245.271 127.776 245.386 127.527 245.489 127.245H245.937V131.487H245.271V128.251H244.759V127.776Z" fill="#263238"/>
<path d="M244.291 134.319C244.291 133.64 244.65 133.255 245.303 133.255C245.956 133.255 246.315 133.646 246.315 134.319V136.523C246.315 137.203 245.956 137.587 245.303 137.587C244.65 137.587 244.291 137.196 244.291 136.523V134.319ZM244.957 136.568C244.957 136.87 245.091 136.985 245.303 136.985C245.514 136.985 245.649 136.87 245.649 136.568V134.281C245.649 133.979 245.514 133.864 245.303 133.864C245.091 133.864 244.957 133.979 244.957 134.281V136.568Z" fill="#263238"/>
<path d="M244.759 139.901C245.271 139.901 245.386 139.651 245.489 139.369H245.937V143.611H245.271V140.375H244.759V139.901Z" fill="#263238"/>
<path d="M244.291 146.443C244.291 145.764 244.65 145.379 245.303 145.379C245.956 145.379 246.315 145.77 246.315 146.443V148.648C246.315 149.327 245.956 149.711 245.303 149.711C244.65 149.711 244.291 149.32 244.291 148.648V146.443ZM244.957 148.692C244.957 148.994 245.091 149.109 245.303 149.109C245.514 149.109 245.649 148.994 245.649 148.692V146.405C245.649 146.104 245.514 145.988 245.303 145.988C245.091 145.988 244.957 146.104 244.957 146.405V148.692Z" fill="#263238"/>
<path d="M244.759 152.025C245.271 152.025 245.386 151.775 245.489 151.493H245.937V155.735H245.271V152.499H244.759V152.025Z" fill="#263238"/>
<path d="M244.291 158.567C244.291 157.888 244.65 157.503 245.303 157.503C245.956 157.503 246.315 157.888 246.315 158.567V160.772C246.315 161.451 245.956 161.835 245.303 161.835C244.65 161.835 244.291 161.444 244.291 160.772V158.567ZM244.957 160.816C244.957 161.118 245.091 161.233 245.303 161.233C245.514 161.233 245.649 161.118 245.649 160.816V158.529C245.649 158.228 245.514 158.112 245.303 158.112C245.091 158.112 244.957 158.228 244.957 158.529V160.816Z" fill="#263238"/>
<path d="M244.291 164.629C244.291 163.95 244.65 163.565 245.303 163.565C245.956 163.565 246.315 163.956 246.315 164.629V166.834C246.315 167.513 245.956 167.897 245.303 167.897C244.65 167.897 244.291 167.513 244.291 166.834V164.629ZM244.957 166.878C244.957 167.18 245.091 167.295 245.303 167.295C245.514 167.295 245.649 167.18 245.649 166.878V164.591C245.649 164.29 245.514 164.174 245.303 164.174C245.091 164.174 244.957 164.29 244.957 164.591V166.878Z" fill="#263238"/>
<path d="M244.291 170.691C244.291 170.012 244.65 169.627 245.303 169.627C245.956 169.627 246.315 170.012 246.315 170.691V172.896C246.315 173.575 245.956 173.959 245.303 173.959C244.65 173.959 244.291 173.568 244.291 172.896V170.691ZM244.957 172.94C244.957 173.242 245.091 173.357 245.303 173.357C245.514 173.357 245.649 173.242 245.649 172.94V170.653C245.649 170.352 245.514 170.236 245.303 170.236C245.091 170.236 244.957 170.352 244.957 170.653V172.94Z" fill="#263238"/>
<path d="M244.759 182.328C245.271 182.328 245.386 182.078 245.489 181.796H245.937V186.039H245.271V182.802H244.759V182.328Z" fill="#263238"/>
<path d="M244.759 188.39C245.271 188.39 245.386 188.14 245.489 187.858H245.937V192.1H245.271V188.864H244.759V188.39Z" fill="#263238"/>
<path d="M244.759 194.452C245.271 194.452 245.386 194.202 245.489 193.92H245.937V198.163H245.271V194.926H244.759V194.452Z" fill="#263238"/>
<path d="M244.291 200.995C244.291 200.316 244.65 199.931 245.303 199.931C245.956 199.931 246.315 200.322 246.315 200.995V203.199C246.315 203.879 245.956 204.263 245.303 204.263C244.65 204.263 244.291 203.872 244.291 203.199V200.995ZM244.957 203.244C244.957 203.545 245.091 203.661 245.303 203.661C245.514 203.661 245.649 203.545 245.649 203.244V200.956C245.649 200.655 245.514 200.54 245.303 200.54C245.091 200.54 244.957 200.655 244.957 200.956V203.244Z" fill="#263238"/>
<path d="M244.291 207.057C244.291 206.378 244.65 205.993 245.303 205.993C245.956 205.993 246.315 206.378 246.315 207.057V209.261C246.315 209.941 245.956 210.325 245.303 210.325C244.65 210.325 244.291 209.934 244.291 209.261V207.057ZM244.957 209.306C244.957 209.607 245.091 209.723 245.303 209.723C245.514 209.723 245.649 209.607 245.649 209.306V207.018C245.649 206.717 245.514 206.602 245.303 206.602C245.091 206.602 244.957 206.717 244.957 207.018V209.306Z" fill="#263238"/>
<path d="M244.759 212.638C245.271 212.638 245.386 212.388 245.489 212.106H245.937V216.349H245.271V213.113H244.759V212.638Z" fill="#263238"/>
<path d="M248.358 115.652C248.87 115.652 248.985 115.403 249.088 115.121H249.536V119.363H248.87V116.127H248.358V115.652Z" fill="#263238"/>
<path d="M248.358 121.714C248.87 121.714 248.985 121.465 249.088 121.183H249.536V125.425H248.87V122.189H248.358V121.714Z" fill="#263238"/>
<path d="M247.89 134.319C247.89 133.64 248.249 133.255 248.902 133.255C249.555 133.255 249.914 133.646 249.914 134.319V136.523C249.914 137.203 249.555 137.587 248.902 137.587C248.249 137.587 247.89 137.196 247.89 136.523V134.319ZM248.556 136.568C248.556 136.87 248.691 136.985 248.902 136.985C249.113 136.985 249.248 136.87 249.248 136.568V134.281C249.248 133.979 249.113 133.864 248.902 133.864C248.691 133.864 248.556 133.979 248.556 134.281V136.568Z" fill="#263238"/>
<path d="M248.358 152.025C248.87 152.025 248.985 151.775 249.088 151.493H249.536V155.735H248.87V152.499H248.358V152.025Z" fill="#263238"/>
<path d="M247.89 158.567C247.89 157.888 248.249 157.503 248.902 157.503C249.555 157.503 249.914 157.888 249.914 158.567V160.772C249.914 161.451 249.555 161.835 248.902 161.835C248.249 161.835 247.89 161.444 247.89 160.772V158.567ZM248.556 160.816C248.556 161.118 248.691 161.233 248.902 161.233C249.113 161.233 249.248 161.118 249.248 160.816V158.529C249.248 158.228 249.113 158.112 248.902 158.112C248.691 158.112 248.556 158.228 248.556 158.529V160.816Z" fill="#263238"/>
<path d="M248.358 164.142C248.87 164.142 248.985 163.892 249.088 163.61H249.536V167.852H248.87V164.616H248.358V164.142Z" fill="#263238"/>
<path d="M248.358 170.204C248.87 170.204 248.985 169.954 249.088 169.672H249.536V173.914H248.87V170.678H248.358V170.204Z" fill="#263238"/>
<path d="M248.358 176.266C248.87 176.266 248.985 176.016 249.088 175.734H249.536V179.976H248.87V176.74H248.358V176.266Z" fill="#263238"/>
<path d="M247.89 182.815C247.89 182.136 248.249 181.751 248.902 181.751C249.555 181.751 249.914 182.136 249.914 182.815V185.02C249.914 185.699 249.555 186.083 248.902 186.083C248.249 186.083 247.89 185.692 247.89 185.02V182.815ZM248.556 185.064C248.556 185.366 248.691 185.481 248.902 185.481C249.113 185.481 249.248 185.366 249.248 185.064V182.777C249.248 182.476 249.113 182.36 248.902 182.36C248.691 182.36 248.556 182.476 248.556 182.777V185.064Z" fill="#263238"/>
<path d="M247.89 188.877C247.89 188.198 248.249 187.813 248.902 187.813C249.555 187.813 249.914 188.204 249.914 188.877V191.082C249.914 191.761 249.555 192.145 248.902 192.145C248.249 192.145 247.89 191.761 247.89 191.082V188.877ZM248.556 191.12C248.556 191.421 248.691 191.537 248.902 191.537C249.113 191.537 249.248 191.421 249.248 191.12V188.832C249.248 188.531 249.113 188.416 248.902 188.416C248.691 188.416 248.556 188.531 248.556 188.832V191.12Z" fill="#263238"/>
<path d="M241.153 152.025C241.666 152.025 241.781 151.775 241.883 151.493H242.332V155.735H241.666V152.499H241.153V152.025Z" fill="#263238"/>
<path d="M240.686 158.567C240.686 157.888 241.044 157.503 241.698 157.503C242.351 157.503 242.709 157.888 242.709 158.567V160.772C242.709 161.451 242.351 161.835 241.698 161.835C241.044 161.835 240.686 161.444 240.686 160.772V158.567ZM241.352 160.816C241.352 161.118 241.486 161.233 241.698 161.233C241.909 161.233 242.043 161.118 242.043 160.816V158.529C242.043 158.228 241.909 158.112 241.698 158.112C241.486 158.112 241.352 158.228 241.352 158.529V160.816Z" fill="#263238"/>
<path d="M240.686 164.629C240.686 163.95 241.044 163.565 241.698 163.565C242.351 163.565 242.709 163.956 242.709 164.629V166.834C242.709 167.513 242.351 167.897 241.698 167.897C241.044 167.897 240.686 167.513 240.686 166.834V164.629ZM241.352 166.878C241.352 167.18 241.486 167.295 241.698 167.295C241.909 167.295 242.043 167.18 242.043 166.878V164.591C242.043 164.29 241.909 164.174 241.698 164.174C241.486 164.174 241.352 164.29 241.352 164.591V166.878Z" fill="#263238"/>
<path d="M241.153 170.204C241.666 170.204 241.781 169.954 241.883 169.672H242.332V173.914H241.666V170.678H241.153V170.204Z" fill="#263238"/>
<path d="M241.153 182.328C241.666 182.328 241.781 182.078 241.883 181.796H242.332V186.039H241.666V182.802H241.153V182.328Z" fill="#263238"/>
<path d="M241.153 188.39C241.666 188.39 241.781 188.14 241.883 187.858H242.332V192.101H241.666V188.864H241.153V188.39Z" fill="#263238"/>
<path d="M241.153 194.452C241.666 194.452 241.781 194.202 241.883 193.92H242.332V198.163H241.666V194.926H241.153V194.452Z" fill="#263238"/>
<path d="M237.087 134.319C237.087 133.64 237.445 133.255 238.098 133.255C238.752 133.255 239.11 133.646 239.11 134.319V136.523C239.11 137.203 238.752 137.587 238.098 137.587C237.445 137.587 237.087 137.196 237.087 136.523V134.319ZM237.753 136.568C237.753 136.87 237.887 136.985 238.098 136.985C238.31 136.985 238.444 136.87 238.444 136.568V134.281C238.444 133.979 238.31 133.864 238.098 133.864C237.887 133.864 237.753 133.979 237.753 134.281V136.568Z" fill="#263238"/>
<path d="M237.087 146.443C237.087 145.764 237.445 145.379 238.098 145.379C238.752 145.379 239.11 145.77 239.11 146.443V148.648C239.11 149.327 238.752 149.711 238.098 149.711C237.445 149.711 237.087 149.32 237.087 148.648V146.443ZM237.753 148.692C237.753 148.994 237.887 149.109 238.098 149.109C238.31 149.109 238.444 148.994 238.444 148.692V146.405C238.444 146.104 238.31 145.988 238.098 145.988C237.887 145.988 237.753 146.104 237.753 146.405V148.692Z" fill="#263238"/>
<path d="M237.554 164.142C238.067 164.142 238.182 163.892 238.284 163.61H238.733V167.852H238.067V164.616H237.554V164.142Z" fill="#263238"/>
<path d="M237.554 170.204C238.067 170.204 238.182 169.954 238.284 169.672H238.733V173.914H238.067V170.678H237.554V170.204Z" fill="#263238"/>
<path d="M237.554 188.39C238.067 188.39 238.182 188.14 238.284 187.858H238.733V192.101H238.067V188.864H237.554V188.39Z" fill="#263238"/>
<path d="M237.087 194.939C237.087 194.26 237.445 193.875 238.098 193.875C238.752 193.875 239.11 194.26 239.11 194.939V197.144C239.11 197.823 238.752 198.207 238.098 198.207C237.445 198.207 237.087 197.816 237.087 197.144V194.939ZM237.753 197.182C237.753 197.483 237.887 197.599 238.098 197.599C238.31 197.599 238.444 197.483 238.444 197.182V194.894C238.444 194.593 238.31 194.478 238.098 194.478C237.887 194.478 237.753 194.593 237.753 194.894V197.182Z" fill="#263238"/>
<path d="M237.554 200.514C238.067 200.514 238.182 200.264 238.284 199.982H238.733V204.224H238.067V200.988H237.554V200.514Z" fill="#263238"/>
<path d="M87.9644 140.791C87.9644 140.112 88.323 139.728 88.9762 139.728C89.6294 139.728 89.988 140.118 89.988 140.791V142.996C89.988 143.675 89.6294 144.059 88.9762 144.059C88.323 144.059 87.9644 143.675 87.9644 142.996V140.791ZM88.6304 143.04C88.6304 143.342 88.7648 143.457 88.9762 143.457C89.1875 143.457 89.322 143.342 89.322 143.04V140.753C89.322 140.452 89.1875 140.336 88.9762 140.336C88.7648 140.336 88.6304 140.452 88.6304 140.753V143.04Z" fill="#263238"/>
<path d="M87.9644 146.853C87.9644 146.174 88.323 145.79 88.9762 145.79C89.6294 145.79 89.988 146.174 89.988 146.853V149.058C89.988 149.737 89.6294 150.121 88.9762 150.121C88.323 150.121 87.9644 149.731 87.9644 149.058V146.853ZM88.6304 149.103C88.6304 149.404 88.7648 149.519 88.9762 149.519C89.1875 149.519 89.322 149.404 89.322 149.103V146.815C89.322 146.514 89.1875 146.398 88.9762 146.398C88.7648 146.398 88.6304 146.514 88.6304 146.815V149.103Z" fill="#263238"/>
<path d="M88.4319 152.428C88.9442 152.428 89.0595 152.178 89.1619 151.896H89.6102V156.139H88.9442V152.903H88.4319V152.428Z" fill="#263238"/>
<path d="M87.9644 158.977C87.9644 158.298 88.323 157.914 88.9762 157.914C89.6294 157.914 89.988 158.298 89.988 158.977V161.182C89.988 161.861 89.6294 162.245 88.9762 162.245C88.323 162.245 87.9644 161.855 87.9644 161.182V158.977ZM88.6304 161.22C88.6304 161.521 88.7648 161.637 88.9762 161.637C89.1875 161.637 89.322 161.521 89.322 161.22V158.932C89.322 158.631 89.1875 158.516 88.9762 158.516C88.7648 158.516 88.6304 158.631 88.6304 158.932V161.22Z" fill="#263238"/>
<path d="M88.4319 164.552C88.9442 164.552 89.0595 164.302 89.1619 164.021H89.6102V168.263H88.9442V165.027H88.4319V164.552Z" fill="#263238"/>
<path d="M87.9644 171.101C87.9644 170.422 88.323 170.038 88.9762 170.038C89.6294 170.038 89.988 170.422 89.988 171.101V173.306C89.988 173.985 89.6294 174.369 88.9762 174.369C88.323 174.369 87.9644 173.979 87.9644 173.306V171.101ZM88.6304 173.344C88.6304 173.645 88.7648 173.761 88.9762 173.761C89.1875 173.761 89.322 173.645 89.322 173.344V171.056C89.322 170.755 89.1875 170.64 88.9762 170.64C88.7648 170.64 88.6304 170.755 88.6304 171.056V173.344Z" fill="#263238"/>
<path d="M88.4319 176.676C88.9442 176.676 89.0595 176.426 89.1619 176.145H89.6102V180.387H88.9442V177.151H88.4319V176.676Z" fill="#263238"/>
<path d="M87.9644 183.219C87.9644 182.54 88.323 182.155 88.9762 182.155C89.6294 182.155 89.988 182.546 89.988 183.219V185.423C89.988 186.103 89.6294 186.487 88.9762 186.487C88.323 186.487 87.9644 186.096 87.9644 185.423V183.219ZM88.6304 185.468C88.6304 185.769 88.7648 185.885 88.9762 185.885C89.1875 185.885 89.322 185.769 89.322 185.468V183.181C89.322 182.879 89.1875 182.764 88.9762 182.764C88.7648 182.764 88.6304 182.879 88.6304 183.181V185.468Z" fill="#263238"/>
<path d="M87.9644 189.281C87.9644 188.602 88.323 188.217 88.9762 188.217C89.6294 188.217 89.988 188.608 89.988 189.281V191.485C89.988 192.165 89.6294 192.549 88.9762 192.549C88.323 192.549 87.9644 192.165 87.9644 191.485V189.281ZM88.6304 191.53C88.6304 191.831 88.7648 191.947 88.9762 191.947C89.1875 191.947 89.322 191.831 89.322 191.53V189.243C89.322 188.941 89.1875 188.826 88.9762 188.826C88.7648 188.826 88.6304 188.941 88.6304 189.243V191.53Z" fill="#263238"/>
<path d="M87.9644 195.343C87.9644 194.664 88.323 194.279 88.9762 194.279C89.6294 194.279 89.988 194.67 89.988 195.343V197.547C89.988 198.226 89.6294 198.611 88.9762 198.611C88.323 198.611 87.9644 198.22 87.9644 197.547V195.343ZM88.6304 197.592C88.6304 197.893 88.7648 198.009 88.9762 198.009C89.1875 198.009 89.322 197.893 89.322 197.592V195.304C89.322 195.003 89.1875 194.888 88.9762 194.888C88.7648 194.888 88.6304 195.003 88.6304 195.304V197.592Z" fill="#263238"/>
<path d="M88.4319 200.924C88.9442 200.924 89.0595 200.675 89.1619 200.393H89.6102V204.635H88.9442V201.399H88.4319V200.924Z" fill="#263238"/>
<path d="M88.4319 206.98C88.9442 206.98 89.0595 206.73 89.1619 206.448H89.6102V210.69H88.9442V207.454H88.4319V206.98Z" fill="#263238"/>
<path d="M88.4319 213.042C88.9442 213.042 89.0595 212.792 89.1619 212.51H89.6102V216.752H88.9442V213.516H88.4319V213.042Z" fill="#263238"/>
<path d="M88.4319 219.104C88.9442 219.104 89.0595 218.854 89.1619 218.572H89.6102V222.814H88.9442V219.578H88.4319V219.104Z" fill="#263238"/>
<path d="M92.031 164.552C92.5433 164.552 92.6586 164.302 92.7611 164.021H93.2093V168.263H92.5433V165.027H92.031V164.552Z" fill="#263238"/>
<path d="M92.031 170.614C92.5433 170.614 92.6586 170.364 92.7611 170.083H93.2093V174.325H92.5433V171.089H92.031V170.614Z" fill="#263238"/>
<path d="M91.5635 183.219C91.5635 182.54 91.9221 182.155 92.5753 182.155C93.2285 182.155 93.5871 182.546 93.5871 183.219V185.423C93.5871 186.103 93.2285 186.487 92.5753 186.487C91.9221 186.487 91.5635 186.096 91.5635 185.423V183.219ZM92.2295 185.468C92.2295 185.769 92.364 185.885 92.5753 185.885C92.7866 185.885 92.9211 185.769 92.9211 185.468V183.181C92.9211 182.879 92.7866 182.764 92.5753 182.764C92.364 182.764 92.2295 182.879 92.2295 183.181V185.468Z" fill="#263238"/>
<path d="M92.031 188.8C92.5433 188.8 92.6586 188.551 92.7611 188.269H93.2093V192.511H92.5433V189.275H92.031V188.8Z" fill="#263238"/>
<path d="M91.5635 195.343C91.5635 194.664 91.9221 194.279 92.5753 194.279C93.2285 194.279 93.5871 194.67 93.5871 195.343V197.547C93.5871 198.227 93.2285 198.611 92.5753 198.611C91.9221 198.611 91.5635 198.22 91.5635 197.547V195.343ZM92.2295 197.592C92.2295 197.893 92.364 198.009 92.5753 198.009C92.7866 198.009 92.9211 197.893 92.9211 197.592V195.305C92.9211 195.003 92.7866 194.888 92.5753 194.888C92.364 194.888 92.2295 195.003 92.2295 195.305V197.592Z" fill="#263238"/>
<path d="M92.2295 209.716C92.2295 210.018 92.364 210.133 92.5753 210.133C92.7866 210.133 92.9211 210.018 92.9211 209.716V207.429C92.9211 207.128 92.7866 207.012 92.5753 207.012C92.364 207.012 92.2295 207.128 92.2295 207.429V209.716Z" fill="#263238"/>
<path d="M92.031 213.042C92.5433 213.042 92.6586 212.792 92.7611 212.51H93.2093V216.752H92.5433V213.516H92.031V213.042Z" fill="#263238"/>
<path d="M92.031 219.104C92.5433 219.104 92.6586 218.854 92.7611 218.572H93.2093V222.814H92.5433V219.578H92.031V219.104Z" fill="#263238"/>
<path d="M84.3655 158.977C84.3655 158.298 84.7241 157.914 85.3773 157.914C86.0305 157.914 86.3891 158.298 86.3891 158.977V161.182C86.3891 161.861 86.0305 162.245 85.3773 162.245C84.7241 162.245 84.3655 161.855 84.3655 161.182V158.977ZM85.0315 161.22C85.0315 161.521 85.166 161.637 85.3773 161.637C85.5886 161.637 85.7231 161.521 85.7231 161.22V158.932C85.7231 158.631 85.5886 158.516 85.3773 158.516C85.166 158.516 85.0315 158.631 85.0315 158.932V161.22Z" fill="#263238"/>
<path d="M84.8267 164.552C85.339 164.552 85.4542 164.302 85.5567 164.021H86.005V168.263H85.339V165.027H84.8267V164.552Z" fill="#263238"/>
<path d="M84.8267 170.614C85.339 170.614 85.4542 170.364 85.5567 170.083H86.005V174.325H85.339V171.089H84.8267V170.614Z" fill="#263238"/>
<path d="M84.3655 177.157C84.3655 176.478 84.7241 176.093 85.3773 176.093C86.0305 176.093 86.3891 176.484 86.3891 177.157V179.361C86.3891 180.04 86.0305 180.425 85.3773 180.425C84.7241 180.425 84.3655 180.034 84.3655 179.361V177.157ZM85.0315 179.406C85.0315 179.707 85.166 179.823 85.3773 179.823C85.5886 179.823 85.7231 179.707 85.7231 179.406V177.118C85.7231 176.817 85.5886 176.702 85.3773 176.702C85.166 176.702 85.0315 176.817 85.0315 177.118V179.406Z" fill="#263238"/>
<path d="M84.3655 189.281C84.3655 188.602 84.7241 188.217 85.3773 188.217C86.0305 188.217 86.3891 188.608 86.3891 189.281V191.485C86.3891 192.165 86.0305 192.549 85.3773 192.549C84.7241 192.549 84.3655 192.165 84.3655 191.485V189.281ZM85.0315 191.53C85.0315 191.831 85.166 191.947 85.3773 191.947C85.5886 191.947 85.7231 191.831 85.7231 191.53V189.243C85.7231 188.941 85.5886 188.826 85.3773 188.826C85.166 188.826 85.0315 188.941 85.0315 189.243V191.53Z" fill="#263238"/>
<path d="M84.3655 195.343C84.3655 194.664 84.7241 194.279 85.3773 194.279C86.0305 194.279 86.3891 194.67 86.3891 195.343V197.547C86.3891 198.227 86.0305 198.611 85.3773 198.611C84.7241 198.611 84.3655 198.22 84.3655 197.547V195.343ZM85.0315 197.592C85.0315 197.893 85.166 198.009 85.3773 198.009C85.5886 198.009 85.7231 197.893 85.7231 197.592V195.305C85.7231 195.003 85.5886 194.888 85.3773 194.888C85.166 194.888 85.0315 195.003 85.0315 195.305V197.592Z" fill="#263238"/>
<path d="M84.8267 200.924C85.339 200.924 85.4542 200.675 85.5567 200.393H86.005V204.635H85.339V201.399H84.8267V200.924Z" fill="#263238"/>
<path d="M84.3655 207.467C84.3655 206.788 84.7241 206.403 85.3773 206.403C86.0305 206.403 86.3891 206.794 86.3891 207.467V209.671C86.3891 210.351 86.0305 210.735 85.3773 210.735C84.7241 210.735 84.3655 210.344 84.3655 209.671V207.467ZM85.0315 209.716C85.0315 210.017 85.166 210.133 85.3773 210.133C85.5886 210.133 85.7231 210.017 85.7231 209.716V207.429C85.7231 207.127 85.5886 207.012 85.3773 207.012C85.166 207.012 85.0315 207.127 85.0315 207.429V209.716Z" fill="#263238"/>
<path d="M84.8267 213.042C85.339 213.042 85.4542 212.792 85.5567 212.51H86.005V216.752H85.339V213.516H84.8267V213.042Z" fill="#263238"/>
<path d="M80.76 146.853C80.76 146.174 81.1186 145.79 81.7718 145.79C82.425 145.79 82.7837 146.18 82.7837 146.853V149.058C82.7837 149.737 82.425 150.121 81.7718 150.121C81.1186 150.121 80.76 149.737 80.76 149.058V146.853ZM81.426 149.103C81.426 149.404 81.5605 149.519 81.7718 149.519C81.9832 149.519 82.1176 149.404 82.1176 149.103V146.815C82.1176 146.514 81.9832 146.398 81.7718 146.398C81.5605 146.398 81.426 146.514 81.426 146.815V149.103Z" fill="#263238"/>
<path d="M81.2275 158.49C81.7399 158.49 81.8551 158.24 81.9576 157.958H82.4059V162.201H81.7399V158.965H81.2275V158.49Z" fill="#263238"/>
<path d="M81.2275 170.614C81.7399 170.614 81.8551 170.364 81.9576 170.083H82.4059V174.325H81.7399V171.089H81.2275V170.614Z" fill="#263238"/>
<path d="M80.76 177.163C80.76 176.484 81.1186 176.1 81.7718 176.1C82.425 176.1 82.7837 176.491 82.7837 177.163V179.368C82.7837 180.047 82.425 180.431 81.7718 180.431C81.1186 180.431 80.76 180.047 80.76 179.368V177.163ZM81.426 179.406C81.426 179.707 81.5605 179.823 81.7718 179.823C81.9832 179.823 82.1176 179.707 82.1176 179.406V177.118C82.1176 176.817 81.9832 176.702 81.7718 176.702C81.5605 176.702 81.426 176.817 81.426 177.118V179.406Z" fill="#263238"/>
<path d="M81.2275 194.862C81.7399 194.862 81.8551 194.613 81.9576 194.331H82.4059V198.573H81.7399V195.337H81.2275V194.862Z" fill="#263238"/>
<path d="M81.2275 200.924C81.7399 200.924 81.8551 200.675 81.9576 200.393H82.4059V204.635H81.7399V201.399H81.2275V200.924Z" fill="#263238"/>
<path d="M81.2275 206.986C81.7399 206.986 81.8551 206.737 81.9576 206.455H82.4059V210.697H81.7399V207.461H81.2275V206.986Z" fill="#263238"/>
<path d="M194.027 1.06374C194.027 0.384483 194.385 0 195.038 0C195.692 0 196.05 0.384483 196.05 1.06374V3.2681C196.05 3.94736 195.692 4.33184 195.038 4.33184C194.385 4.33184 194.027 3.94095 194.027 3.2681V1.06374ZM194.693 3.31296C194.693 3.61414 194.827 3.72948 195.038 3.72948C195.25 3.72948 195.384 3.61414 195.384 3.31296V1.02529C195.384 0.724109 195.25 0.608764 195.038 0.608764C194.827 0.608764 194.693 0.724109 194.693 1.02529V3.31296Z" fill="#263238"/>
<path d="M194.027 7.12575C194.027 6.44649 194.385 6.06201 195.038 6.06201C195.692 6.06201 196.05 6.4529 196.05 7.12575V9.33012C196.05 10.0094 195.692 10.3939 195.038 10.3939C194.385 10.3939 194.027 10.003 194.027 9.33012V7.12575ZM194.693 9.37497C194.693 9.67615 194.827 9.79149 195.038 9.79149C195.25 9.79149 195.384 9.67615 195.384 9.37497V7.0873C195.384 6.78612 195.25 6.67078 195.038 6.67078C194.827 6.67078 194.693 6.78612 194.693 7.0873V9.37497Z" fill="#263238"/>
<path d="M194.494 24.8248C195.006 24.8248 195.122 24.5749 195.224 24.293H195.672V28.5351H195.006V25.299H194.494V24.8248Z" fill="#263238"/>
<path d="M194.494 30.8868C195.006 30.8868 195.122 30.6369 195.224 30.355H195.672V34.5971H195.006V31.361H194.494V30.8868Z" fill="#263238"/>
<path d="M194.027 49.5598C194.027 48.8806 194.385 48.4961 195.038 48.4961C195.692 48.4961 196.05 48.887 196.05 49.5598V51.7642C196.05 52.4434 195.692 52.8279 195.038 52.8279C194.385 52.8279 194.027 52.437 194.027 51.7642V49.5598ZM194.693 51.8091C194.693 52.1102 194.827 52.2256 195.038 52.2256C195.25 52.2256 195.384 52.1102 195.384 51.8091V49.5214C195.384 49.2202 195.25 49.1049 195.038 49.1049C194.827 49.1049 194.693 49.2202 194.693 49.5214V51.8091Z" fill="#263238"/>
<path d="M194.027 61.6839C194.027 61.0046 194.385 60.6201 195.038 60.6201C195.692 60.6201 196.05 61.011 196.05 61.6839V63.8882C196.05 64.5675 195.692 64.952 195.038 64.952C194.385 64.952 194.027 64.5675 194.027 63.8882V61.6839ZM194.693 63.9267C194.693 64.2278 194.827 64.3432 195.038 64.3432C195.25 64.3432 195.384 64.2278 195.384 63.9267V61.639C195.384 61.3378 195.25 61.2225 195.038 61.2225C194.827 61.2225 194.693 61.3378 194.693 61.639V63.9267Z" fill="#263238"/>
<path d="M183.223 13.1878C183.223 12.5085 183.582 12.124 184.235 12.124C184.888 12.124 185.247 12.5149 185.247 13.1878V15.3921C185.247 16.0714 184.888 16.4559 184.235 16.4559C183.582 16.4559 183.223 16.065 183.223 15.3921V13.1878ZM183.889 15.437C183.889 15.7382 184.024 15.8535 184.235 15.8535C184.446 15.8535 184.581 15.7382 184.581 15.437V13.1493C184.581 12.8481 184.446 12.7328 184.235 12.7328C184.024 12.7328 183.889 12.8481 183.889 13.1493V15.437Z" fill="#263238"/>
<path d="M183.223 19.2498C183.223 18.5705 183.582 18.186 184.235 18.186C184.888 18.186 185.247 18.5769 185.247 19.2498V21.4541C185.247 22.1334 184.888 22.5179 184.235 22.5179C183.582 22.5179 183.223 22.127 183.223 21.4541V19.2498ZM183.889 21.499C183.889 21.8002 184.024 21.9155 184.235 21.9155C184.446 21.9155 184.581 21.8002 184.581 21.499V19.2113C184.581 18.9101 184.446 18.7948 184.235 18.7948C184.024 18.7948 183.889 18.9101 183.889 19.2113V21.499Z" fill="#263238"/>
<path d="M183.223 25.3118C183.223 24.6325 183.582 24.248 184.235 24.248C184.888 24.248 185.247 24.6389 185.247 25.3118V27.5161C185.247 28.1954 184.888 28.5799 184.235 28.5799C183.582 28.5799 183.223 28.1954 183.223 27.5161V25.3118ZM183.889 27.561C183.889 27.8622 184.024 27.9775 184.235 27.9775C184.446 27.9775 184.581 27.8622 184.581 27.561V25.2733C184.581 24.9722 184.446 24.8568 184.235 24.8568C184.024 24.8568 183.889 24.9722 183.889 25.2733V27.561Z" fill="#263238"/>
<path d="M183.691 30.8868C184.203 30.8868 184.318 30.6369 184.421 30.355H184.869V34.5971H184.203V31.361H183.691V30.8868Z" fill="#263238"/>
<path d="M183.691 43.0109C184.203 43.0109 184.318 42.761 184.421 42.479H184.869V46.7211H184.203V43.4851H183.691V43.0109Z" fill="#263238"/>
<path d="M183.691 49.0729C184.203 49.0729 184.318 48.823 184.421 48.541H184.869V52.7831H184.203V49.5471H183.691V49.0729Z" fill="#263238"/>
<path d="M183.223 61.6839C183.223 61.0046 183.582 60.6201 184.235 60.6201C184.888 60.6201 185.247 61.011 185.247 61.6839V63.8882C185.247 64.5675 184.888 64.952 184.235 64.952C183.582 64.952 183.223 64.5675 183.223 63.8882V61.6839ZM183.889 63.9267C183.889 64.2278 184.024 64.3432 184.235 64.3432C184.446 64.3432 184.581 64.2278 184.581 63.9267V61.639C184.581 61.3378 184.446 61.2225 184.235 61.2225C184.024 61.2225 183.889 61.3378 183.889 61.639V63.9267Z" fill="#263238"/>
<path d="M183.691 67.2589C184.203 67.2589 184.318 67.009 184.421 66.7271H184.869V70.9692H184.203V67.7331H183.691V67.2589Z" fill="#263238"/>
<path d="M190.427 1.06374C190.427 0.384483 190.786 0 191.439 0C192.093 0 192.451 0.384483 192.451 1.06374V3.2681C192.451 3.94736 192.093 4.33184 191.439 4.33184C190.786 4.33184 190.427 3.94095 190.427 3.2681V1.06374ZM191.094 3.31296C191.094 3.61414 191.228 3.72948 191.439 3.72948C191.651 3.72948 191.785 3.61414 191.785 3.31296V1.02529C191.785 0.724109 191.651 0.608764 191.439 0.608764C191.228 0.608764 191.094 0.724109 191.094 1.02529V3.31296Z" fill="#263238"/>
<path d="M190.895 6.64515C191.407 6.64515 191.523 6.39524 191.625 6.11328H192.073V10.3554H191.407V7.11934H190.895V6.64515Z" fill="#263238"/>
<path d="M190.427 13.1878C190.427 12.5085 190.786 12.124 191.439 12.124C192.093 12.124 192.451 12.5149 192.451 13.1878V15.3921C192.451 16.0714 192.093 16.4559 191.439 16.4559C190.786 16.4559 190.427 16.065 190.427 15.3921V13.1878ZM191.094 15.437C191.094 15.7382 191.228 15.8535 191.439 15.8535C191.651 15.8535 191.785 15.7382 191.785 15.437V13.1493C191.785 12.8481 191.651 12.7328 191.439 12.7328C191.228 12.7328 191.094 12.8481 191.094 13.1493V15.437Z" fill="#263238"/>
<path d="M190.895 18.7692C191.407 18.7692 191.523 18.5193 191.625 18.2373H192.073V22.4794H191.407V19.2434H190.895V18.7692Z" fill="#263238"/>
<path d="M190.895 24.8248C191.407 24.8248 191.523 24.5749 191.625 24.293H192.073V28.5351H191.407V25.299H190.895V24.8248Z" fill="#263238"/>
<path d="M190.895 30.8868C191.407 30.8868 191.523 30.6369 191.625 30.355H192.073V34.5971H191.407V31.361H190.895V30.8868Z" fill="#263238"/>
<path d="M190.427 37.4358C190.427 36.7566 190.786 36.3721 191.439 36.3721C192.093 36.3721 192.451 36.763 192.451 37.4358V39.6402C192.451 40.3194 192.093 40.7039 191.439 40.7039C190.786 40.7039 190.427 40.313 190.427 39.6402V37.4358ZM191.094 39.685C191.094 39.9862 191.228 40.1016 191.439 40.1016C191.651 40.1016 191.785 39.9862 191.785 39.685V37.3974C191.785 37.0962 191.651 36.9808 191.439 36.9808C191.228 36.9808 191.094 37.0962 191.094 37.3974V39.685Z" fill="#263238"/>
<path d="M190.427 43.4978C190.427 42.8186 190.786 42.4341 191.439 42.4341C192.093 42.4341 192.451 42.8186 192.451 43.4978V45.7022C192.451 46.3814 192.093 46.7659 191.439 46.7659C190.786 46.7659 190.427 46.375 190.427 45.7022V43.4978ZM191.094 45.747C191.094 46.0482 191.228 46.1636 191.439 46.1636C191.651 46.1636 191.785 46.0482 191.785 45.747V43.4594C191.785 43.1582 191.651 43.0428 191.439 43.0428C191.228 43.0428 191.094 43.1582 191.094 43.4594V45.747Z" fill="#263238"/>
<path d="M187.29 6.64515C187.802 6.64515 187.917 6.39524 188.02 6.11328H188.468V10.3554H187.802V7.11934H187.29V6.64515Z" fill="#263238"/>
<path d="M186.829 13.1878C186.829 12.5085 187.187 12.124 187.84 12.124C188.494 12.124 188.852 12.5149 188.852 13.1878V15.3921C188.852 16.0714 188.494 16.4559 187.84 16.4559C187.187 16.4559 186.829 16.065 186.829 15.3921V13.1878ZM187.495 15.437C187.495 15.7382 187.629 15.8535 187.84 15.8535C188.052 15.8535 188.186 15.7382 188.186 15.437V13.1493C188.186 12.8481 188.052 12.7328 187.84 12.7328C187.629 12.7328 187.495 12.8481 187.495 13.1493V15.437Z" fill="#263238"/>
<path d="M186.829 19.2498C186.829 18.5705 187.187 18.186 187.84 18.186C188.494 18.186 188.852 18.5769 188.852 19.2498V21.4541C188.852 22.1334 188.494 22.5179 187.84 22.5179C187.187 22.5179 186.829 22.127 186.829 21.4541V19.2498ZM187.495 21.499C187.495 21.8002 187.629 21.9155 187.84 21.9155C188.052 21.9155 188.186 21.8002 188.186 21.499V19.2113C188.186 18.9101 188.052 18.7948 187.84 18.7948C187.629 18.7948 187.495 18.9101 187.495 19.2113V21.499Z" fill="#263238"/>
<path d="M187.29 24.8248C187.802 24.8248 187.917 24.5749 188.02 24.293H188.468V28.5351H187.802V25.299H187.29V24.8248Z" fill="#263238"/>
<path d="M187.29 36.9489C187.802 36.9489 187.917 36.6989 188.02 36.417H188.468V40.6591H187.802V37.4231H187.29V36.9489Z" fill="#263238"/>
<path d="M187.29 43.0109C187.802 43.0109 187.917 42.761 188.02 42.479H188.468V46.7211H187.802V43.4851H187.29V43.0109Z" fill="#263238"/>
<path d="M187.29 49.0729C187.802 49.0729 187.917 48.823 188.02 48.541H188.468V52.7831H187.802V49.5471H187.29V49.0729Z" fill="#263238"/>
<path d="M24.4949 68.1817C24.4949 67.5024 24.8535 67.1179 25.5067 67.1179C26.1599 67.1179 26.5185 67.5088 26.5185 68.1817V70.386C26.5185 71.0653 26.1599 71.4498 25.5067 71.4498C24.8535 71.4498 24.4949 71.0589 24.4949 70.386V68.1817ZM25.1609 70.4309C25.1609 70.7321 25.2954 70.8474 25.5067 70.8474C25.718 70.8474 25.8525 70.7321 25.8525 70.4309V68.1432C25.8525 67.842 25.718 67.7267 25.5067 67.7267C25.2954 67.7267 25.1609 67.842 25.1609 68.1432V70.4309Z" fill="#263238"/>
<path d="M24.4949 74.2437C24.4949 73.5644 24.8535 73.1799 25.5067 73.1799C26.1599 73.1799 26.5185 73.5708 26.5185 74.2437V76.448C26.5185 77.1273 26.1599 77.5118 25.5067 77.5118C24.8535 77.5118 24.4949 77.1273 24.4949 76.448V74.2437ZM25.1609 76.4929C25.1609 76.7941 25.2954 76.9094 25.5067 76.9094C25.718 76.9094 25.8525 76.7941 25.8525 76.4929V74.2052C25.8525 73.904 25.718 73.7887 25.5067 73.7887C25.2954 73.7887 25.1609 73.904 25.1609 74.2052V76.4929Z" fill="#263238"/>
<path d="M24.9624 79.8187C25.4747 79.8187 25.59 79.5688 25.6925 79.2869H26.1407V83.529H25.4747V80.2929H24.9624V79.8187Z" fill="#263238"/>
<path d="M24.4949 86.3677C24.4949 85.6884 24.8535 85.304 25.5067 85.304C26.1599 85.304 26.5185 85.6948 26.5185 86.3677V88.5721C26.5185 89.2513 26.1599 89.6358 25.5067 89.6358C24.8535 89.6358 24.4949 89.2449 24.4949 88.5721V86.3677ZM25.1609 88.6169C25.1609 88.9181 25.2954 89.0334 25.5067 89.0334C25.718 89.0334 25.8525 88.9181 25.8525 88.6169V86.3292C25.8525 86.0281 25.718 85.9127 25.5067 85.9127C25.2954 85.9127 25.1609 86.0281 25.1609 86.3292V88.6169Z" fill="#263238"/>
<path d="M24.9624 91.9428C25.4747 91.9428 25.59 91.6928 25.6925 91.4109H26.1407V95.653H25.4747V92.417H24.9624V91.9428Z" fill="#263238"/>
<path d="M24.4949 98.4917C24.4949 97.8125 24.8535 97.428 25.5067 97.428C26.1599 97.428 26.5185 97.8189 26.5185 98.4917V100.696C26.5185 101.375 26.1599 101.76 25.5067 101.76C24.8535 101.76 24.4949 101.369 24.4949 100.696V98.4917ZM25.1609 100.741C25.1609 101.042 25.2954 101.157 25.5067 101.157C25.718 101.157 25.8525 101.042 25.8525 100.741V98.4533C25.8525 98.1521 25.718 98.0368 25.5067 98.0368C25.2954 98.0368 25.1609 98.1521 25.1609 98.4533V100.741Z" fill="#263238"/>
<path d="M24.9624 104.067C25.4747 104.067 25.59 103.817 25.6925 103.535H26.1407V107.777H25.4747V104.541H24.9624V104.067Z" fill="#263238"/>
<path d="M24.4949 110.616C24.4949 109.936 24.8535 109.552 25.5067 109.552C26.1599 109.552 26.5185 109.943 26.5185 110.616V112.82C26.5185 113.499 26.1599 113.884 25.5067 113.884C24.8535 113.884 24.4949 113.499 24.4949 112.82V110.616ZM25.1609 112.859C25.1609 113.16 25.2954 113.275 25.5067 113.275C25.718 113.275 25.8525 113.16 25.8525 112.859V110.571C25.8525 110.27 25.718 110.154 25.5067 110.154C25.2954 110.154 25.1609 110.27 25.1609 110.571V112.859Z" fill="#263238"/>
<path d="M24.4949 116.678C24.4949 115.998 24.8535 115.614 25.5067 115.614C26.1599 115.614 26.5185 116.005 26.5185 116.678V118.882C26.5185 119.561 26.1599 119.946 25.5067 119.946C24.8535 119.946 24.4949 119.555 24.4949 118.882V116.678ZM25.1609 118.921C25.1609 119.222 25.2954 119.337 25.5067 119.337C25.718 119.337 25.8525 119.222 25.8525 118.921V116.633C25.8525 116.332 25.718 116.216 25.5067 116.216C25.2954 116.216 25.1609 116.332 25.1609 116.633V118.921Z" fill="#263238"/>
<path d="M24.4949 122.74C24.4949 122.061 24.8535 121.676 25.5067 121.676C26.1599 121.676 26.5185 122.067 26.5185 122.74V124.944C26.5185 125.623 26.1599 126.008 25.5067 126.008C24.8535 126.008 24.4949 125.623 24.4949 124.944V122.74ZM25.1609 124.983C25.1609 125.284 25.2954 125.399 25.5067 125.399C25.718 125.399 25.8525 125.284 25.8525 124.983V122.695C25.8525 122.394 25.718 122.278 25.5067 122.278C25.2954 122.278 25.1609 122.394 25.1609 122.695V124.983Z" fill="#263238"/>
<path d="M24.9624 134.377C25.4747 134.377 25.59 134.127 25.6925 133.845H26.1407V138.087H25.4747V134.851H24.9624V134.377Z" fill="#263238"/>
<path d="M28.5615 91.9425C29.0738 91.9425 29.1891 91.6926 29.2916 91.4106H29.7398V95.6528H29.0738V92.4167H28.5615V91.9425Z" fill="#263238"/>
<path d="M28.5615 98.0045C29.0738 98.0045 29.1891 97.7546 29.2916 97.4727H29.7398V101.715H29.0738V98.4787H28.5615V98.0045Z" fill="#263238"/>
<path d="M28.094 104.554C28.094 103.874 28.4526 103.49 29.1058 103.49C29.759 103.49 30.1176 103.881 30.1176 104.554V106.758C30.1176 107.437 29.759 107.822 29.1058 107.822C28.4526 107.822 28.094 107.431 28.094 106.758V104.554ZM28.76 106.803C28.76 107.104 28.8945 107.219 29.1058 107.219C29.3171 107.219 29.4516 107.104 29.4516 106.803V104.515C29.4516 104.214 29.3171 104.099 29.1058 104.099C28.8945 104.099 28.76 104.214 28.76 104.515V106.803Z" fill="#263238"/>
<path d="M28.094 110.615C28.094 109.936 28.4526 109.552 29.1058 109.552C29.759 109.552 30.1176 109.943 30.1176 110.615V112.82C30.1176 113.499 29.759 113.884 29.1058 113.884C28.4526 113.884 28.094 113.499 28.094 112.82V110.615ZM28.76 112.858C28.76 113.159 28.8945 113.275 29.1058 113.275C29.3171 113.275 29.4516 113.159 29.4516 112.858V110.571C29.4516 110.269 29.3171 110.154 29.1058 110.154C28.8945 110.154 28.76 110.269 28.76 110.571V112.858Z" fill="#263238"/>
<path d="M28.5615 116.191C29.0738 116.191 29.1891 115.941 29.2916 115.659H29.7398V119.901H29.0738V116.665H28.5615V116.191Z" fill="#263238"/>
<path d="M28.5615 128.315C29.0738 128.315 29.1891 128.065 29.2916 127.783H29.7398V132.025H29.0738V128.789H28.5615V128.315Z" fill="#263238"/>
<path d="M20.8896 86.3677C20.8896 85.6884 21.2483 85.304 21.9015 85.304C22.5547 85.304 22.9133 85.6948 22.9133 86.3677V88.5721C22.9133 89.2513 22.5547 89.6358 21.9015 89.6358C21.2483 89.6358 20.8896 89.2449 20.8896 88.5721V86.3677ZM21.5557 88.6169C21.5557 88.9181 21.6901 89.0334 21.9015 89.0334C22.1128 89.0334 22.2473 88.9181 22.2473 88.6169V86.3292C22.2473 86.0281 22.1128 85.9127 21.9015 85.9127C21.6901 85.9127 21.5557 86.0281 21.5557 86.3292V88.6169Z" fill="#263238"/>
<path d="M21.3572 91.9428C21.8695 91.9428 21.9848 91.6928 22.0872 91.4109H22.5355V95.653H21.8695V92.417H21.3572V91.9428Z" fill="#263238"/>
<path d="M21.3572 98.0048C21.8695 98.0048 21.9848 97.7549 22.0872 97.4729H22.5355V101.715H21.8695V98.479H21.3572V98.0048Z" fill="#263238"/>
<path d="M20.8896 104.554C20.8896 103.874 21.2483 103.49 21.9015 103.49C22.5547 103.49 22.9133 103.881 22.9133 104.554V106.758C22.9133 107.437 22.5547 107.822 21.9015 107.822C21.2483 107.822 20.8896 107.431 20.8896 106.758V104.554ZM21.5557 106.803C21.5557 107.104 21.6901 107.219 21.9015 107.219C22.1128 107.219 22.2473 107.104 22.2473 106.803V104.515C22.2473 104.214 22.1128 104.099 21.9015 104.099C21.6901 104.099 21.5557 104.214 21.5557 104.515V106.803Z" fill="#263238"/>
<path d="M21.3572 110.129C21.8695 110.129 21.9848 109.879 22.0872 109.597H22.5355V113.839H21.8695V110.603H21.3572V110.129Z" fill="#263238"/>
<path d="M20.8896 116.678C20.8896 115.998 21.2483 115.614 21.9015 115.614C22.5547 115.614 22.9133 116.005 22.9133 116.678V118.882C22.9133 119.561 22.5547 119.946 21.9015 119.946C21.2483 119.946 20.8896 119.555 20.8896 118.882V116.678ZM21.5557 118.921C21.5557 119.222 21.6901 119.337 21.9015 119.337C22.1128 119.337 22.2473 119.222 22.2473 118.921V116.633C22.2473 116.332 22.1128 116.216 21.9015 116.216C21.6901 116.216 21.5557 116.332 21.5557 116.633V118.921Z" fill="#263238"/>
<path d="M17.2905 74.2437C17.2905 73.5644 17.6491 73.1799 18.3024 73.1799C18.9556 73.1799 19.3142 73.5708 19.3142 74.2437V76.448C19.3142 77.1273 18.9556 77.5118 18.3024 77.5118C17.6491 77.5118 17.2905 77.1209 17.2905 76.448V74.2437ZM17.9565 76.4929C17.9565 76.7941 18.091 76.9094 18.3024 76.9094C18.5137 76.9094 18.6482 76.7941 18.6482 76.4929V74.2052C18.6482 73.904 18.5137 73.7887 18.3024 73.7887C18.091 73.7887 17.9565 73.904 17.9565 74.2052V76.4929Z" fill="#263238"/>
<path d="M17.7581 85.8807C18.2704 85.8807 18.3856 85.6308 18.4881 85.3489H18.9364V89.591H18.2704V86.3549H17.7581V85.8807Z" fill="#263238"/>
<path d="M17.2905 92.4297C17.2905 91.7505 17.6491 91.366 18.3024 91.366C18.9556 91.366 19.3142 91.7569 19.3142 92.4297V94.6341C19.3142 95.3133 18.9556 95.6978 18.3024 95.6978C17.6491 95.6978 17.2905 95.3133 17.2905 94.6341V92.4297ZM17.9565 94.6789C17.9565 94.9801 18.091 95.0954 18.3024 95.0954C18.5137 95.0954 18.6482 94.9801 18.6482 94.6789V92.3912C18.6482 92.0901 18.5137 91.9747 18.3024 91.9747C18.091 91.9747 17.9565 92.0901 17.9565 92.3912V94.6789Z" fill="#263238"/>
<path d="M17.2905 104.554C17.2905 103.874 17.6491 103.49 18.3024 103.49C18.9556 103.49 19.3142 103.881 19.3142 104.554V106.758C19.3142 107.437 18.9556 107.822 18.3024 107.822C17.6491 107.822 17.2905 107.431 17.2905 106.758V104.554ZM17.9565 106.803C17.9565 107.104 18.091 107.219 18.3024 107.219C18.5137 107.219 18.6482 107.104 18.6482 106.803V104.515C18.6482 104.214 18.5137 104.099 18.3024 104.099C18.091 104.099 17.9565 104.214 17.9565 104.515V106.803Z" fill="#263238"/>
<path d="M17.2905 110.616C17.2905 109.936 17.6491 109.552 18.3024 109.552C18.9556 109.552 19.3142 109.943 19.3142 110.616V112.82C19.3142 113.499 18.9556 113.884 18.3024 113.884C17.6491 113.884 17.2905 113.493 17.2905 112.82V110.616ZM17.9565 112.865C17.9565 113.166 18.091 113.281 18.3024 113.281C18.5137 113.281 18.6482 113.166 18.6482 112.865V110.577C18.6482 110.276 18.5137 110.161 18.3024 110.161C18.091 110.161 17.9565 110.276 17.9565 110.577V112.865Z" fill="#263238"/>
<path d="M17.2905 116.678C17.2905 115.998 17.6491 115.614 18.3024 115.614C18.9556 115.614 19.3142 116.005 19.3142 116.678V118.882C19.3142 119.561 18.9556 119.946 18.3024 119.946C17.6491 119.946 17.2905 119.555 17.2905 118.882V116.678ZM17.9565 118.921C17.9565 119.222 18.091 119.337 18.3024 119.337C18.5137 119.337 18.6482 119.222 18.6482 118.921V116.633C18.6482 116.332 18.5137 116.216 18.3024 116.216C18.091 116.216 17.9565 116.332 17.9565 116.633V118.921Z" fill="#263238"/>
<path d="M17.7581 134.377C18.2704 134.377 18.3856 134.127 18.4881 133.845H18.9364V138.087H18.2704V134.851H17.7581V134.377Z" fill="#263238"/>
<path d="M234.819 120.317H214.077L209.082 122.938L209.095 120.317C207.09 120.317 205.47 118.696 205.47 116.69V101.926C205.47 99.9206 207.09 98.2993 209.095 98.2993H234.819C236.824 98.2993 238.444 99.9206 238.444 101.926V116.69C238.444 118.696 236.824 120.317 234.819 120.317Z" fill="white" stroke="#4F56D3" stroke-linecap="round" stroke-linejoin="round"/>
<path d="M129.443 106.585H125.6" stroke="#263238" stroke-linecap="round" stroke-linejoin="round"/>
<path d="M121.457 106.585H115.239" stroke="#263238" stroke-linecap="round" stroke-linejoin="round"/>
<path d="M113.17 106.585H109.328" stroke="#263238" stroke-linecap="round" stroke-linejoin="round"/>
<path d="M216.933 105.829H226.975" stroke="#4F56D3" stroke-linecap="round" stroke-linejoin="round"/>
<path d="M216.933 108.802H226.975" stroke="#4F56D3" stroke-linecap="round" stroke-linejoin="round"/>
<path d="M216.933 111.775H226.975" stroke="#4F56D3" stroke-linecap="round" stroke-linejoin="round"/>
<path d="M115.469 10.0413H160.726C161.898 10.0413 162.852 10.9961 162.852 12.1687V37.4869C162.852 38.6596 161.898 39.6144 160.726 39.6144H115.469C114.297 39.6144 113.343 38.6596 113.343 37.4869V12.1687C113.343 10.9961 114.297 10.0413 115.469 10.0413Z" stroke="#263238" stroke-linecap="round" stroke-linejoin="round"/>
<path d="M118.018 35.4812H132.203C132.61 35.4812 132.939 35.1513 132.939 34.7443V14.9114C132.939 14.5044 132.61 14.1744 132.203 14.1744L118.018 14.1744C117.612 14.1744 117.282 14.5044 117.282 14.9114V34.7443C117.282 35.1513 117.612 35.4812 118.018 35.4812Z" stroke="#263238" stroke-linecap="round" stroke-linejoin="round"/>
<path d="M125.114 35.4813H117.993C117.602 35.4813 117.288 35.1673 117.288 34.7764V29.855C117.288 29.855 121.284 29.682 121.957 28.8297C122.629 27.9775 121.886 26.651 121.886 26.651C121.643 26.3498 121.585 24.216 121.585 24.216L121.348 24.1583C121.111 24.1006 120.797 22.3256 120.797 21.6591C120.797 20.9927 121.348 20.7492 121.348 20.7492C121.348 20.7492 120.746 16.4302 125.12 16.4302C129.494 16.4302 128.892 20.7492 128.892 20.7492C128.892 20.7492 129.443 20.9927 129.443 21.6591C129.443 22.3256 129.129 24.0942 128.892 24.1583L128.655 24.216C128.655 24.216 128.597 26.3498 128.354 26.651C128.354 26.651 127.611 27.9839 128.284 28.8297C128.956 29.682 132.952 29.855 132.952 29.855V34.7764C132.952 35.1673 132.638 35.4813 132.248 35.4813H125.127H125.114Z" fill="#4F56D3"/>
<path d="M157.883 35.5838H148.155C147.745 35.5838 147.412 35.2506 147.412 34.8405C147.412 34.4304 147.745 34.0972 148.155 34.0972H157.883C158.293 34.0972 158.626 34.4304 158.626 34.8405C158.626 35.2506 158.293 35.5838 157.883 35.5838Z" fill="#263238"/>
<path d="M157.883 15.5587H137.717C137.307 15.5587 136.974 15.2255 136.974 14.8154C136.974 14.4052 137.307 14.072 137.717 14.072H157.883C158.293 14.072 158.626 14.4052 158.626 14.8154C158.626 15.2255 158.293 15.5587 157.883 15.5587Z" fill="#263238"/>
<path d="M149.289 20.5633H137.723C137.313 20.5633 136.98 20.2301 136.98 19.82C136.98 19.4099 137.313 19.0767 137.723 19.0767H149.289C149.698 19.0767 150.031 19.4099 150.031 19.82C150.031 20.2301 149.698 20.5633 149.289 20.5633Z" fill="#263238"/>
<path d="M145.6 25.5743H137.717C137.307 25.5743 136.974 25.2411 136.974 24.831C136.974 24.4209 137.307 24.0876 137.717 24.0876H145.6C146.01 24.0876 146.343 24.4209 146.343 24.831C146.343 25.2411 146.01 25.5743 145.6 25.5743Z" fill="#263238"/>
<path d="M149.289 30.5792H137.723C137.313 30.5792 136.98 30.246 136.98 29.8359C136.98 29.4257 137.313 29.0925 137.723 29.0925H149.289C149.698 29.0925 150.031 29.4257 150.031 29.8359C150.031 30.246 149.698 30.5792 149.289 30.5792Z" fill="#263238"/>
<path d="M66.8122 88.79V117.267L59.1531 124.925H38.8206V88.79H66.8122Z" stroke="#263238" stroke-linecap="round" stroke-linejoin="round"/>
<path d="M66.8122 117.267L59.1531 124.925V117.267H66.8122Z" fill="#263238" stroke="#263238" stroke-linecap="round" stroke-linejoin="round"/>
<path d="M45.6343 93.3975H62.5343" stroke="#263238" stroke-linecap="round" stroke-linejoin="round"/>
<path d="M43.0984 96.5823H62.5343" stroke="#263238" stroke-linecap="round" stroke-linejoin="round"/>
<path d="M43.0984 99.7605H62.5343" stroke="#263238" stroke-linecap="round" stroke-linejoin="round"/>
<path d="M43.0984 102.945H62.5343" stroke="#263238" stroke-linecap="round" stroke-linejoin="round"/>
<path d="M43.0984 106.13H62.5343" stroke="#263238" stroke-linecap="round" stroke-linejoin="round"/>
<path d="M43.0984 109.309H62.5343" stroke="#263238" stroke-linecap="round" stroke-linejoin="round"/>
<path d="M43.0984 112.493H62.5343" stroke="#263238" stroke-linecap="round" stroke-linejoin="round"/>
<path d="M43.0984 115.672H59.992" stroke="#263238" stroke-linecap="round" stroke-linejoin="round"/>
<path d="M68.1443 93.3975H71.4167V121.868L63.7576 129.532H43.425V126.168" stroke="#263238" stroke-linecap="round" stroke-linejoin="round"/>
<path d="M71.4167 121.868L63.7576 129.532V121.868H71.4167Z" fill="#263238" stroke="#263238" stroke-linecap="round" stroke-linejoin="round"/>
<path d="M171.715 68.989H104.474C102.974 68.989 101.759 70.2055 101.759 71.706V146.616C101.759 148.117 102.974 149.333 104.474 149.333H171.715C173.215 149.333 174.43 148.117 174.43 146.616V71.706C174.43 70.2055 173.215 68.989 171.715 68.989Z" fill="#CDFF65" stroke="#263238" stroke-linecap="round" stroke-linejoin="round"/>
<g opacity="0.5">
<path d="M172.964 95.7744H103.225" stroke="white" stroke-linecap="round" stroke-linejoin="round"/>
<path d="M172.964 104.701H103.225" stroke="white" stroke-linecap="round" stroke-linejoin="round"/>
<path d="M172.964 113.621H103.225" stroke="white" stroke-linecap="round" stroke-linejoin="round"/>
<path d="M172.964 122.547H103.225" stroke="white" stroke-linecap="round" stroke-linejoin="round"/>
<path d="M172.964 131.474H103.225" stroke="white" stroke-linecap="round" stroke-linejoin="round"/>
<path d="M172.964 140.4H103.225" stroke="white" stroke-linecap="round" stroke-linejoin="round"/>
<path d="M172.964 86.8479H103.225" stroke="white" stroke-linecap="round" stroke-linejoin="round"/>
<path d="M172.964 77.9216H103.225" stroke="white" stroke-linecap="round" stroke-linejoin="round"/>
<path d="M156.301 147.898V70.4243" stroke="white" stroke-linecap="round" stroke-linejoin="round"/>
<path d="M147.201 147.898V70.4243" stroke="white" stroke-linecap="round" stroke-linejoin="round"/>
<path d="M138.094 147.898V70.4243" stroke="white" stroke-linecap="round" stroke-linejoin="round"/>
<path d="M128.994 147.898V70.4243" stroke="white" stroke-linecap="round" stroke-linejoin="round"/>
<path d="M119.888 147.898V70.4243" stroke="white" stroke-linecap="round" stroke-linejoin="round"/>
<path d="M110.788 147.898V70.4243" stroke="white" stroke-linecap="round" stroke-linejoin="round"/>
<path d="M165.407 147.898V70.4243" stroke="white" stroke-linecap="round" stroke-linejoin="round"/>
</g>
<path d="M161.608 109.93C161.608 122.665 151.312 132.986 138.614 132.986C125.916 132.986 115.62 122.665 115.62 109.93C115.62 97.1947 125.916 86.8733 138.614 86.8733C151.312 86.8733 161.608 97.1947 161.608 109.93Z" stroke="#263238"/>
<ellipse cx="138.614" cy="109.93" rx="18.7952" ry="18.8451" fill="#4F56D3"/>
<path d="M106.651 85.9895V74.1475H118.486" stroke="#263238" stroke-linecap="round" stroke-linejoin="round"/>
<path d="M118.486 144.175H106.651V132.333" stroke="#263238" stroke-linecap="round" stroke-linejoin="round"/>
<path d="M169.538 85.9895V74.1475H157.703" stroke="#263238" stroke-linecap="round" stroke-linejoin="round"/>
<path d="M157.703 144.175H169.538V132.333" stroke="#263238" stroke-linecap="round" stroke-linejoin="round"/>
<path d="M127.46 107.227H128.386C128.374 107.408 128.327 107.586 128.246 107.759C128.165 107.932 128.051 108.094 127.905 108.243C127.759 108.389 127.566 108.507 127.326 108.598C127.087 108.688 126.819 108.734 126.522 108.734C125.942 108.734 125.462 108.541 125.085 108.155C124.707 107.765 124.518 107.241 124.518 106.583C124.518 105.941 124.705 105.424 125.079 105.03C125.452 104.632 125.933 104.433 126.522 104.433C127.062 104.433 127.493 104.575 127.814 104.858C128.135 105.142 128.323 105.5 128.38 105.934H127.454C127.401 105.733 127.296 105.567 127.138 105.437C126.979 105.307 126.774 105.242 126.522 105.242C126.21 105.242 125.956 105.364 125.761 105.609C125.566 105.853 125.468 106.178 125.468 106.583C125.468 106.985 125.566 107.31 125.761 107.558C125.956 107.802 126.212 107.924 126.528 107.924C126.792 107.924 127.006 107.853 127.168 107.712C127.33 107.566 127.428 107.404 127.46 107.227Z" fill="white"/>
<path d="M129.439 105.03C129.821 104.632 130.316 104.433 130.926 104.433C131.535 104.433 132.028 104.632 132.406 105.03C132.788 105.424 132.979 105.941 132.979 106.583C132.979 107.225 132.788 107.745 132.406 108.143C132.028 108.537 131.535 108.734 130.926 108.734C130.316 108.734 129.821 108.537 129.439 108.143C129.062 107.745 128.873 107.225 128.873 106.583C128.873 105.941 129.062 105.424 129.439 105.03ZM130.115 107.552C130.314 107.8 130.584 107.924 130.926 107.924C131.267 107.924 131.535 107.8 131.73 107.552C131.929 107.3 132.028 106.977 132.028 106.583C132.028 106.19 131.929 105.869 131.73 105.62C131.535 105.368 131.267 105.242 130.926 105.242C130.584 105.242 130.314 105.368 130.115 105.62C129.92 105.869 129.823 106.19 129.823 106.583C129.823 106.977 129.92 107.3 130.115 107.552Z" fill="white"/>
<path d="M136.498 105.301H134.616V106.069H135.402C135.841 106.069 136.188 106.186 136.444 106.418C136.699 106.65 136.827 106.965 136.827 107.363C136.827 107.737 136.695 108.048 136.431 108.296C136.172 108.541 135.828 108.663 135.402 108.663H133.684V104.504H136.498V105.301ZM135.268 106.802H134.616V107.901H135.268C135.459 107.901 135.609 107.851 135.719 107.753C135.832 107.651 135.889 107.515 135.889 107.345C135.889 107.18 135.834 107.048 135.725 106.95C135.615 106.851 135.463 106.802 135.268 106.802Z" fill="white"/>
<path d="M139.142 104.504C139.621 104.504 139.997 104.636 140.269 104.9C140.545 105.16 140.683 105.496 140.683 105.91C140.683 106.312 140.543 106.646 140.263 106.914C139.987 107.178 139.621 107.31 139.166 107.31H138.441V108.663H137.509V104.504H139.142ZM139.057 105.278H138.441V106.536H139.057C139.268 106.536 139.434 106.479 139.556 106.365C139.678 106.247 139.739 106.095 139.739 105.91C139.739 105.721 139.678 105.569 139.556 105.455C139.438 105.337 139.272 105.278 139.057 105.278Z" fill="white"/>
<path d="M142.231 104.504H143.193L144.765 108.663H143.803L143.498 107.806H141.926L141.628 108.663H140.665L142.231 104.504ZM142.706 105.55L142.188 107.05H143.224L142.706 105.55Z" fill="white"/>
<path d="M144.553 105.307V104.504H148.037V105.307H146.764V108.663H145.832V105.307H144.553Z" fill="white"/>
<path d="M150.296 105.91C150.767 105.91 151.139 106.038 151.411 106.294C151.683 106.55 151.819 106.881 151.819 107.286C151.819 107.688 151.681 108.019 151.405 108.279C151.132 108.535 150.771 108.663 150.32 108.663H148.675V104.504H149.608V105.91H150.296ZM150.211 106.69H149.608V107.889H150.211C150.414 107.889 150.574 107.834 150.692 107.723C150.814 107.613 150.875 107.467 150.875 107.286C150.875 107.101 150.816 106.956 150.698 106.849C150.584 106.743 150.422 106.69 150.211 106.69Z" fill="white"/>
<path d="M128.398 110.411V114.57H127.484V111.841L125.662 114.57H124.749V110.411H125.662V113.152L127.484 110.411H128.398Z" fill="white"/>
<path d="M132.949 110.411V114.57H132.035V111.841L130.213 114.57H129.3V110.411H130.213V113.152L132.035 110.411H132.949Z" fill="white"/>
<path d="M133.759 113.347V112.567H135.739V113.347H133.759Z" fill="white"/>
<path d="M139.366 111.209H137.483V111.977H138.269C138.708 111.977 139.055 112.093 139.311 112.325C139.567 112.558 139.695 112.873 139.695 113.27C139.695 113.644 139.563 113.956 139.299 114.204C139.039 114.448 138.696 114.57 138.269 114.57H136.551V110.411H139.366V111.209ZM138.135 112.709H137.483V113.808H138.135C138.326 113.808 138.476 113.759 138.586 113.66C138.7 113.558 138.757 113.422 138.757 113.253C138.757 113.087 138.702 112.955 138.592 112.857C138.483 112.758 138.33 112.709 138.135 112.709Z" fill="white"/>
<path d="M140.748 110.937C141.13 110.539 141.625 110.34 142.235 110.34C142.844 110.34 143.337 110.539 143.715 110.937C144.097 111.331 144.288 111.849 144.288 112.491C144.288 113.133 144.097 113.652 143.715 114.05C143.337 114.444 142.844 114.641 142.235 114.641C141.625 114.641 141.13 114.444 140.748 114.05C140.371 113.652 140.182 113.133 140.182 112.491C140.182 111.849 140.371 111.331 140.748 110.937ZM141.424 113.459C141.623 113.708 141.893 113.832 142.235 113.832C142.576 113.832 142.844 113.708 143.039 113.459C143.238 113.207 143.337 112.884 143.337 112.491C143.337 112.097 143.238 111.776 143.039 111.528C142.844 111.276 142.576 111.15 142.235 111.15C141.893 111.15 141.623 111.276 141.424 111.528C141.229 111.776 141.132 112.097 141.132 112.491C141.132 112.884 141.229 113.207 141.424 113.459Z" fill="white"/>
<path d="M144.559 111.215V110.411H148.043V111.215H146.77V114.57H145.838V111.215H144.559Z" fill="white"/>
<path d="M149.394 110.411H150.356L151.928 114.57H150.965L150.661 113.713H149.089L148.79 114.57H147.828L149.394 110.411ZM149.869 111.457L149.351 112.957H150.386L149.869 111.457Z" fill="white"/>
<path d="M219.809 253.06C216.722 248.44 213.482 243.544 210.818 239.501C210.818 239.501 210.805 239.488 210.805 239.482C207.405 234.323 204.958 230.562 204.958 230.562C203.658 224.468 201.808 222.071 199.957 217.066C198.113 212.062 199.63 207.602 200.399 201.399C201.154 195.196 199.957 189.428 199.31 185.513C198.657 181.598 199.419 177.894 199.31 177.022C199.201 176.151 195.5 171.582 194.085 168.211C193.451 166.699 192.541 165.296 191.465 164.11C190.146 162.656 188.584 161.521 187.021 160.919C186.22 160.611 185.484 160.432 184.812 160.342C183.083 160.092 181.68 160.374 180.278 160.374C178.318 160.374 174.194 157.004 171.472 156.465C170.966 156.369 170.46 156.292 169.942 156.254H169.922C167.675 156.042 165.318 156.279 162.667 156.465C160.06 156.638 156.974 154.184 154.515 153.402C154.502 153.402 154.489 153.389 154.47 153.383C153.861 153.197 153.285 153.108 152.773 153.197C150.16 153.633 145.267 154.069 145.267 154.069C145.267 154.069 144.832 150.698 144.614 146.123C144.576 145.328 144.518 144.566 144.448 143.816V143.797C144.198 140.977 143.788 138.452 143.724 136.145C143.705 135.543 143.705 134.947 143.743 134.37C143.954 131.115 143.858 128.558 143.756 123.586C143.756 123.413 143.756 123.24 143.743 123.06C143.711 121.503 143.724 120.016 143.647 118.671C143.468 115.415 142.744 113.012 139.51 112.506C136.68 112.07 134.72 113.487 133.529 118.164C132.331 122.849 131.46 122.516 131.14 129.372C130.807 136.229 129.289 140.586 129.507 144.066C129.718 147.545 128.963 154.293 128.963 154.293C127.663 153.639 126.459 154.184 126.235 154.729C126.011 155.273 125.05 160.605 124.282 164.418C123.603 167.801 120.529 170.928 119.389 173.261C119.376 173.28 119.37 173.299 119.363 173.318C119.235 173.588 119.133 173.85 119.069 174.1C118.416 176.49 118.742 181.611 118.742 188.14C118.742 194.67 117.109 201.418 118.742 205.769C119.069 206.634 119.562 207.435 120.183 208.204C122.687 211.299 127.279 213.971 131.467 218.931C136.686 225.134 140.381 229.709 143.865 231.779C146.356 233.253 147.451 234.451 147.906 236.04C147.906 236.053 147.906 236.06 147.906 236.06C148.085 236.688 148.162 237.38 148.194 238.168C148.239 239.552 148.988 240.616 150.262 242.378C151.55 244.159 153.362 246.659 155.494 250.933C156.89 253.72 159.023 259.039 161.264 264.909L219.828 253.079L219.809 253.06Z" fill="white"/>
<path opacity="0.4" d="M143.736 134.37C143.698 134.947 143.692 135.543 143.717 136.145C139.561 135.357 131.537 137.408 131.415 139.862C131.274 142.854 130.909 149.929 132.434 151.576C133.958 153.223 137.217 154.28 137.217 154.28C136.968 154.299 136.731 154.331 136.5 154.376H136.487C136.462 154.376 136.43 154.389 136.41 154.395C135.322 154.626 134.419 155.164 133.689 155.927C130.512 159.195 130.371 166.43 131.415 169.909C135.77 184.372 128.713 195.823 126.228 194.439C123.737 193.062 123.519 180.617 124.275 177.701C125.037 174.786 124.941 172.472 124.941 172.472C123.833 172.101 121.502 172.646 119.357 173.306C119.369 173.286 119.376 173.267 119.382 173.248C120.522 170.915 123.596 167.788 124.275 164.405C125.037 160.592 126.004 155.26 126.228 154.716C126.452 154.171 127.65 153.626 128.956 154.28C128.956 154.28 129.712 147.532 129.501 144.053C129.283 140.573 130.801 136.216 131.134 129.359C131.46 122.503 132.325 122.836 133.522 118.151C134.713 113.467 136.673 112.057 139.503 112.493C142.744 112.993 143.461 115.396 143.64 118.658C143.275 118.324 142.885 117.991 142.456 117.703C141.386 116.966 140.144 116.453 138.857 116.633C137.358 116.844 136.039 118.344 135.213 119.946C134.015 122.253 133.817 124.745 135.501 123.899C137.409 122.945 141.348 123.259 143.749 123.579C143.852 128.558 143.954 131.109 143.736 134.364V134.37Z" fill="#D1D4FF"/>
<path opacity="0.4" d="M148.174 238.149C148.149 237.36 148.072 236.668 147.886 236.04C147.886 236.04 147.886 236.04 147.886 236.021C147.432 234.432 146.336 233.234 143.845 231.76C140.368 229.69 136.667 225.121 131.447 218.912C127.266 213.952 122.668 211.28 120.164 208.185C123.314 209.896 127.592 209.018 128.943 211.715C130.903 215.618 140.112 221.526 140.112 221.526C149.103 230.446 148.174 238.142 148.174 238.142V238.149Z" fill="#D1D4FF"/>
<path opacity="0.4" d="M154.463 153.383C153.406 153.171 150.537 160.246 150.262 162.758C149.545 169.268 152.881 189.338 148.584 188.89C146.81 188.704 144.729 179.329 144.601 174.959C144.217 161.681 144.748 156.17 144.748 156.17C144.748 156.17 143.794 148.82 144.435 143.816C144.505 144.565 144.563 145.328 144.601 146.123C144.819 150.692 145.254 154.069 145.254 154.069C145.254 154.069 150.147 153.633 152.76 153.197C153.278 153.107 153.848 153.197 154.457 153.383H154.463Z" fill="#D1D4FF"/>
<path opacity="0.4" d="M169.916 156.254C167.604 156.465 165.273 158.727 163.384 159.137C161.065 159.631 156.82 154.415 154.508 153.402C156.973 154.184 160.054 156.638 162.66 156.465C165.311 156.286 167.668 156.049 169.916 156.254Z" fill="#D1D4FF"/>
<path opacity="0.4" d="M184.811 160.348C183.979 161.252 182.448 163.905 182.077 165.103C180.213 171.127 181.974 193.927 178.971 190.197C175.058 185.346 179.144 168.525 176.294 162.098C175.385 160.041 172.17 156.754 171.466 156.478C174.187 157.016 178.318 160.387 180.271 160.387C181.673 160.387 183.082 160.105 184.805 160.355L184.811 160.348Z" fill="#D1D4FF"/>
<path opacity="0.4" d="M210.805 239.488C207.757 236.047 204.568 232.779 202.473 231.542C197.389 228.549 195.929 225.448 195.493 220.277C195.058 215.099 196.364 215.221 197.888 210.113C199.412 205 196.582 198.681 196.8 200.046C197.011 201.411 194.622 210.876 192.855 211.337C191.087 211.799 190.492 205.429 190.274 200.232C190.056 195.035 192.887 170.826 192.093 166.097C191.965 165.334 191.747 164.68 191.452 164.116C192.528 165.302 193.444 166.699 194.071 168.218C195.487 171.588 199.182 176.164 199.297 177.029C199.406 177.9 198.644 181.598 199.297 185.519C199.944 189.435 201.141 195.202 200.386 201.405C199.624 207.608 198.1 212.068 199.944 217.073C201.795 222.077 203.645 224.474 204.945 230.568C204.945 230.568 207.398 234.329 210.792 239.488H210.805Z" fill="#D1D4FF"/>
<path opacity="0.4" d="M164.902 169.134C166.061 170.351 166.784 186.275 167.438 190.191C168.091 194.106 166.061 203.487 164.902 200.649C163.742 197.81 160.188 164.18 164.902 169.134Z" fill="#D1D4FF"/>
<path d="M160.387 262.659C158.465 257.693 156.692 253.342 155.475 250.913C153.342 246.639 151.53 244.14 150.243 242.359C148.975 240.596 148.219 239.539 148.174 238.149C148.149 237.36 148.072 236.668 147.886 236.04C147.886 236.04 147.886 236.04 147.886 236.021C147.431 234.432 146.336 233.234 143.845 231.76C140.368 229.69 136.666 225.121 131.447 218.912C127.265 213.952 122.667 211.28 120.163 208.185C119.542 207.416 119.049 206.608 118.723 205.75C117.09 201.398 118.723 194.651 118.723 188.121C118.723 181.591 118.39 176.478 119.049 174.081C119.113 173.831 119.222 173.568 119.344 173.299C119.357 173.28 119.363 173.261 119.369 173.242C120.509 170.909 123.583 167.782 124.262 164.398C125.024 160.586 125.991 155.254 126.215 154.709C126.439 154.165 127.637 153.62 128.943 154.274C128.943 154.274 129.699 147.526 129.488 144.046C129.27 140.567 130.788 136.209 131.121 129.353C131.447 122.496 132.312 122.829 133.509 118.145C134.7 113.461 136.66 112.051 139.491 112.487C142.731 112.987 143.448 115.39 143.628 118.651C143.704 119.997 143.685 121.484 143.724 123.041C143.724 123.22 143.724 123.4 143.736 123.566C143.839 128.545 143.941 131.096 143.724 134.351C143.685 134.928 143.679 135.524 143.704 136.126C143.768 138.433 144.178 140.958 144.428 143.777V143.797C144.498 144.546 144.556 145.309 144.595 146.103C144.812 150.672 145.248 154.049 145.248 154.049C145.248 154.049 150.14 153.614 152.753 153.178C153.272 153.088 153.842 153.178 154.45 153.364C154.469 153.364 154.482 153.377 154.495 153.383C156.961 154.165 160.041 156.619 162.647 156.446C165.298 156.267 167.655 156.03 169.903 156.235H169.922C170.441 156.279 170.947 156.35 171.453 156.446C174.174 156.984 178.305 160.355 180.258 160.355C181.661 160.355 183.069 160.073 184.792 160.323C185.471 160.419 186.201 160.592 187.001 160.9C188.564 161.502 190.127 162.63 191.446 164.091C192.522 165.276 193.437 166.673 194.065 168.192C195.48 171.563 199.175 176.138 199.291 177.003C199.399 177.875 198.637 181.572 199.291 185.494C199.937 189.409 201.135 195.176 200.379 201.379C199.617 207.582 198.093 212.042 199.937 217.047C201.788 222.052 203.639 224.448 204.939 230.542C204.939 230.542 207.392 234.304 210.786 239.462C210.786 239.462 210.786 239.475 210.798 239.481C213.162 243.064 215.973 247.325 218.733 251.465" stroke="#263238" stroke-linecap="round" stroke-linejoin="round"/>
<path d="M128.943 154.28C128.943 159.067 128.508 165.014 127.784 167.481C127.06 169.948 127.554 178.214 126.215 181.7" stroke="#263238" stroke-linecap="round" stroke-linejoin="round"/>
<path d="M131.409 158.054C131.409 158.054 134.745 154.28 137.211 154.28C139.676 154.28 142.142 155.876 144.748 156.164C147.361 156.452 150.076 154.524 152.58 154.062" stroke="#263238" stroke-linecap="round" stroke-linejoin="round"/>
<path d="M133.298 140.599C133.298 140.599 137.793 138.952 140.112 140.599" stroke="#263238" stroke-linecap="round" stroke-linejoin="round"/>
<path d="M136.705 138.471C136.705 138.471 138.082 138.1 140.112 139.08" stroke="#263238" stroke-linecap="round" stroke-linejoin="round"/>
<path d="M135.501 126.86C135.501 126.86 137.787 126.277 140.112 126.86" stroke="#263238" stroke-linecap="round" stroke-linejoin="round"/>
<path d="M119.376 173.248C119.376 173.248 122.277 171.838 123.436 171.691" stroke="#263238" stroke-linecap="round" stroke-linejoin="round"/>
<path d="M126.996 177.701C126.996 177.701 125.274 180.399 124.934 181.706" stroke="#263238" stroke-linecap="round" stroke-linejoin="round"/>
<path d="M135.501 115.108C135.501 115.108 134.809 120.651 135.501 121.144C136.193 121.637 141.559 122.099 141.995 121.144C142.43 120.189 142.513 116.127 142.513 116.127C142.513 116.127 139.305 110.616 135.501 115.108Z" stroke="#263238" stroke-linecap="round" stroke-linejoin="round"/>
<path d="M124.268 164.405C124.268 164.405 128.713 162.162 128.822 158.952C128.93 155.741 127.618 155.773 125.959 155.754" stroke="#263238" stroke-linecap="round" stroke-linejoin="round"/>
<path d="M193.61 171.691C193.758 176.766 192.304 191.569 192.163 193.747C192.016 195.926 192.163 201.488 192.163 201.488" stroke="#263238" stroke-linecap="round" stroke-linejoin="round"/>
<path d="M161.86 160.079C166.643 167.051 161.86 164.405 164.901 197.669" stroke="#263238" stroke-linecap="round" stroke-linejoin="round"/>
</g>
<defs>
<clipPath id="clip0_339_278">
<rect width="260" height="223" fill="white"/>
</clipPath>
</defs>
</svg>
