<svg width="58" height="58" viewBox="0 0 58 58" fill="none" xmlns="http://www.w3.org/2000/svg">
<path d="M11.523 25.6518L7.66966 19.8232L1.84106 23.6766M23.6767 56.7053L19.8233 50.8767L25.6519 47.0234M47.0235 32.8944L50.8768 38.7231L56.7054 34.8697M34.8698 1.84097L38.7231 7.66957L32.8945 11.5229M38.4375 7.85842C31.48 4.88862 23.2114 5.36041 16.4288 9.84448C15.4383 10.4993 14.5141 11.2168 13.658 11.9883M11.9883 44.8883C11.2168 44.0322 10.4993 43.108 9.8445 42.1175C5.36043 35.3349 4.88866 27.0663 7.85844 20.1088M44.8885 46.558C44.0324 47.3295 43.1082 48.047 42.1177 48.7018C35.3351 53.1859 27.0665 53.6577 20.1089 50.6879M46.5581 13.6579C47.3296 14.514 48.0471 15.4382 48.7019 16.4287C53.186 23.2113 53.6578 31.4799 50.688 38.4375" stroke="#515161" stroke-width="2" stroke-linecap="round" stroke-linejoin="round"/>
</svg>
