<svg width="63" height="66" viewBox="0 0 63 66" fill="none" xmlns="http://www.w3.org/2000/svg">
<path d="M39.9393 55.8034C40.8896 55.4504 41.8249 55.0689 42.7708 54.5724C43.7168 54.0758 44.5621 53.5226 45.3923 52.9408L53.1487 56.5674C53.8511 56.8919 54.6773 56.6406 55.1093 55.976L61.735 45.2011C62.1671 44.5365 61.9845 43.6473 61.4319 43.1347L54.9139 37.4718C55.2466 35.4 55.3245 33.316 55.1048 31.2057L61.9075 26.2484C62.5302 25.8121 62.716 24.9484 62.3409 24.2332L56.3395 12.7899C55.9644 12.0747 55.1486 11.7368 54.4358 12.0015L46.4929 14.7847C44.8822 13.4047 43.096 12.2992 41.2308 11.3811L40.2771 2.79723C40.1825 2.0078 39.542 1.39544 38.7499 1.37344L26.1228 0.705022C25.3157 0.654418 24.6545 1.22039 24.5222 1.98302L23.0973 10.4291C22.147 10.782 21.1839 11.1782 20.2658 11.6601C19.3476 12.1421 18.4745 12.7098 17.6442 13.2916L9.88792 9.66508C9.18553 9.34059 8.35932 9.59188 7.92728 10.2565L1.30158 21.0313C0.869535 21.6959 1.05205 22.5852 1.6047 23.0977L8.12273 28.7607C7.79002 30.8325 7.71209 32.9165 7.93175 35.0267L1.12908 39.9841C0.506359 40.4204 0.320638 41.2841 0.695722 41.9993L6.69707 53.4425C7.07216 54.1577 7.88802 54.4956 8.60076 54.2309L16.5437 51.4478C18.1544 52.8278 19.9406 53.9333 21.8058 54.8513L22.7595 63.4352C22.8541 64.2247 23.4946 64.837 24.2867 64.859L36.9138 65.5275C37.7059 65.5494 38.3821 65.0121 38.5144 64.2495L39.9393 55.8034ZM21.7806 38.2279C18.885 32.7065 20.8975 25.9221 26.2671 23.1034C31.6367 20.2847 38.3603 22.4832 41.256 28.0046C44.1516 33.526 42.1391 40.3104 36.7695 43.1291C31.3999 45.9478 24.6763 43.7492 21.7806 38.2279Z" fill="#4F56D3"/>
</svg>
